<svg min-width="100%" viewBox="0 0 1370 1024" fill="none" xmlns="http://www.w3.org/2000/svg">
<circle cx="443.5" cy="580.5" r="431" stroke="#E98868" stroke-width="25"/>
<mask id="path-2-inside-1_119_522" fill="white">
<rect x="281" y="218" width="451" height="698" rx="5"/>
</mask>
<rect x="281" y="218" width="451" height="698" rx="5" fill="#E98868" stroke="#E98868" stroke-width="40" mask="url(#path-2-inside-1_119_522)"/>
<mask id="path-3-inside-2_119_522" fill="white">
<path d="M629 309H1020C1185.69 309 1320 443.315 1320 609V916H1029C808.086 916 629 736.914 629 516V309Z"/>
</mask>
<path d="M624 299H1020C1191.21 299 1330 437.792 1330 609H1310C1310 448.837 1180.16 319 1020 319H634L624 299ZM1330 926H1029C805.325 926 624 744.675 624 521L634 516C634 731.391 810.848 906 1029 906H1310L1330 926ZM1029 926C805.325 926 624 744.675 624 521V299L634 319V516C634 731.391 810.848 906 1029 906V926ZM1020 299C1191.21 299 1330 437.792 1330 609V926L1310 906V609C1310 448.837 1180.16 319 1020 319V299Z" fill="#3E7494" mask="url(#path-3-inside-2_119_522)"/>
<circle cx="1022" cy="348" r="348" fill="#3E7494"/>
<path d="M489.1 582.85C479.3 581.55 469.4 580.85 459.4 580.75C449.5 580.65 439.6 580.15 429.7 579.25C439 580.35 448.25 581.15 457.45 581.65C466.65 582.25 475.95 582.95 485.35 583.75C482.95 584.35 480.5 584.75 478 584.95C475.6 585.15 473.15 585.25 470.65 585.25C464.05 585.25 457.7 585 451.6 584.5C445.5 584 439.15 583.45 432.55 582.85L431.2 581.05C426.1 580.85 420.65 580.3 414.85 579.4C409.15 578.5 403.9 577.05 399.1 575.05C398.2 573.05 397.35 571.05 396.55 569.05C395.85 567.05 395 565.1 394 563.2C395.1 560.7 396.4 558.55 397.9 556.75C399.5 554.85 401.25 553.1 403.15 551.5C408.55 546.9 413.6 541.95 418.3 536.65C423 531.35 427.55 525.95 431.95 520.45C436.35 514.85 440.75 509.3 445.15 503.8C449.65 498.2 454.4 492.9 459.4 487.9H425.65C419.35 487.9 413.15 488.2 407.05 488.8V488.5C407.05 487.9 406.95 487.3 406.75 486.7C406.55 486 406.45 485.55 406.45 485.35C406.45 484.65 407 484.1 408.1 483.7C409.3 483.3 410.6 483 412 482.8C413.5 482.6 414.9 482.5 416.2 482.5C417.6 482.4 418.5 482.35 418.9 482.35V481C418.3 481 416.95 480.9 414.85 480.7C412.75 480.5 410.55 480.25 408.25 479.95C405.95 479.55 403.9 479.05 402.1 478.45C400.3 477.75 399.4 476.95 399.4 476.05C399.4 475.25 400.4 474.55 402.4 473.95C404.5 473.25 407.25 472.65 410.65 472.15C414.05 471.55 417.85 471.1 422.05 470.8C426.35 470.4 430.7 470.1 435.1 469.9C439.5 469.6 443.75 469.4 447.85 469.3C452.05 469.1 455.75 469 458.95 469C460.85 469 462.8 469.2 464.8 469.6C466.9 469.9 468.95 470.25 470.95 470.65C473.05 471.05 475.1 471.45 477.1 471.85C479.1 472.15 480.95 472.3 482.65 472.3C483.25 474.5 483.8 477.05 484.3 479.95C484.9 482.85 485.45 485.8 485.95 488.8C483.35 490.1 480.25 492.6 476.65 496.3C473.05 500 469.2 504.3 465.1 509.2C461 514.1 456.75 519.35 452.35 524.95C447.95 530.55 443.65 535.9 439.45 541C435.25 546 431.25 550.5 427.45 554.5C423.75 558.4 420.5 561.2 417.7 562.9C423.1 564 428.5 564.9 433.9 565.6C439.3 566.2 444.7 566.75 450.1 567.25C451.5 567.35 453.35 567.45 455.65 567.55C457.95 567.55 460.35 567.55 462.85 567.55C465.45 567.55 468.05 567.6 470.65 567.7C473.25 567.7 475.55 567.8 477.55 568C479.65 568.2 481.35 568.5 482.65 568.9C483.95 569.2 484.6 569.65 484.6 570.25L484.45 571C476.45 570.8 468.5 570.65 460.6 570.55C452.7 570.35 444.75 569.85 436.75 569.05C444.55 570.05 452.4 570.65 460.3 570.85C468.2 571.05 476.1 571.4 484 571.9L483.55 574.6C483.75 574.6 483.95 574.55 484.15 574.45C484.45 574.45 484.8 574.45 485.2 574.45C486.2 574.45 487.4 574.5 488.8 574.6C490.3 574.8 491.7 575.05 493 575.35C494.3 575.75 495.4 576.2 496.3 576.7C497.3 577.3 497.8 577.95 497.8 578.65C497.8 579.35 497.4 579.9 496.6 580.3C495.9 580.8 495.05 581.2 494.05 581.5C493.15 581.8 492.2 582.05 491.2 582.25L489.1 582.85ZM395.05 564.1L395.8 562.3C396.3 560.9 397.2 559.5 398.5 558.1C399.9 556.7 401.15 555.5 402.25 554.5C411.05 546.9 419.25 538.8 426.85 530.2C434.55 521.6 441.85 512.65 448.75 503.35L446.95 502.6C441.95 508.7 437.05 514.8 432.25 520.9C427.55 527 422.55 532.95 417.25 538.75C415.35 540.85 413.4 542.85 411.4 544.75C409.4 546.55 407.4 548.4 405.4 550.3C403.5 552.2 401.6 554.2 399.7 556.3C397.9 558.3 396.2 560.45 394.6 562.75L395.05 564.1ZM400 573.55C401.4 574.35 402.95 575 404.65 575.5C406.45 576.1 408.3 576.55 410.2 576.85C412.1 577.15 414 577.4 415.9 577.6C417.1 577.7 418.35 577.8 419.65 577.9C416.55 577.4 413.5 576.65 410.5 575.65C407 574.45 403.5 573.5 400 572.8L397.3 565.45C397.5 564.25 398.5 562.65 400.3 560.65C402.2 558.55 404.3 556.35 406.6 554.05C409 551.75 411.3 549.5 413.5 547.3C415.8 545.1 417.5 543.3 418.6 541.9C417.7 543 416.05 544.55 413.65 546.55C411.35 548.55 408.95 550.7 406.45 553C404.05 555.2 401.9 557.35 400 559.45C398.2 561.45 397.3 563 397.3 564.1L396.4 565L399.55 572.95L400 573.55ZM414.55 565.9C417.75 566.6 420.95 567.2 424.15 567.7C427.25 568.2 430.35 568.6 433.45 568.9C430.35 568.5 427.35 567.95 424.45 567.25C421.55 566.55 418.5 565.85 415.3 565.15L414.55 565.9ZM407.65 578.8C404.75 578.1 401.85 577.35 398.95 576.55L399.55 575.95C402.25 577.15 405 578.05 407.8 578.65C410.3 579.25 412.85 579.85 415.45 580.45C412.85 579.95 410.25 579.4 407.65 578.8ZM558.715 573.7C554.915 575 552.015 575.7 550.015 575.8C548.015 576 546.265 576.15 544.765 576.25C539.165 576.25 534.115 575.2 529.615 573.1C525.115 571 521.265 568.15 518.065 564.55C514.865 560.95 512.365 556.75 510.565 551.95C508.865 547.05 508.015 541.85 508.015 536.35C508.015 533.15 508.315 529.85 508.915 526.45C509.515 522.95 510.415 519.55 511.615 516.25C512.815 512.85 514.365 509.7 516.265 506.8C518.065 503.9 520.215 501.3 522.715 499C520.115 501.1 517.915 503.6 516.115 506.5C514.215 509.4 512.615 512.55 511.315 515.95C510.015 519.25 509.065 522.7 508.465 526.3C507.865 529.8 507.565 533.2 507.565 536.5C507.565 540.7 508.215 545.2 509.515 550C510.915 554.7 513.115 559.1 516.115 563.2C519.115 567.2 522.965 570.55 527.665 573.25C532.465 575.95 538.265 577.3 545.065 577.3C548.265 577.3 551.615 576.85 555.115 575.95C551.315 578.45 547.065 579.7 542.365 579.7C538.565 579.7 534.965 579.1 531.565 577.9C528.265 576.8 525.165 575.2 522.265 573.1C519.465 571.1 516.915 568.7 514.615 565.9C512.315 563.1 510.365 560.1 508.765 556.9L510.115 555.7C508.415 552.3 507.165 548.9 506.365 545.5C505.665 542.1 505.315 538.65 505.315 535.15C505.315 530.05 506.015 525.15 507.415 520.45C508.915 515.75 510.865 511.3 513.265 507.1L516.865 502.15C517.465 501.05 518.315 499.95 519.415 498.85C520.615 497.75 521.915 496.7 523.315 495.7C524.715 494.6 526.165 493.65 527.665 492.85C529.265 491.95 530.765 491.15 532.165 490.45C535.765 488.65 539.365 487.05 542.965 485.65C546.565 484.15 550.765 483.05 555.565 482.35L554.965 481.9C545.765 482.8 537.965 485.05 531.565 488.65C525.165 492.15 519.965 496.45 515.965 501.55C511.965 506.65 509.065 512.25 507.265 518.35C505.465 524.35 504.565 530.25 504.565 536.05C504.565 539.15 504.815 542.3 505.315 545.5C505.915 548.6 506.765 551.7 507.865 554.8C505.365 548.8 504.115 542.45 504.115 535.75C504.115 529.15 505.215 522.6 507.415 516.1C509.615 509.6 513.065 503.6 517.765 498.1C523.765 492.6 530.315 488.4 537.415 485.5C544.515 482.5 551.365 481 557.965 481C560.065 481 562.215 481.35 564.415 482.05C566.615 482.75 568.615 483.85 570.415 485.35C572.215 486.75 573.665 488.6 574.765 490.9C575.965 493.2 576.565 496 576.565 499.3C576.565 502 575.915 505.3 574.615 509.2C573.315 513.1 571.365 516.9 568.765 520.6C566.265 524.2 563.115 527.3 559.315 529.9C555.515 532.4 551.115 533.65 546.115 533.65H541.165C537.465 532.85 534.065 531.95 530.965 530.95C527.965 529.85 525.115 529 522.415 528.4C522.015 530 521.765 531.55 521.665 533.05C521.665 534.45 521.665 535.85 521.665 537.25C521.665 540.15 521.965 543 522.565 545.8C523.265 548.5 524.315 551 525.715 553.3C527.115 555.6 528.865 557.55 530.965 559.15C533.165 560.65 535.815 561.6 538.915 562C540.815 562.4 542.465 562.65 543.865 562.75C545.265 562.75 546.415 562.8 547.315 562.9C548.315 562.9 549.015 563.05 549.415 563.35C549.915 563.55 550.165 564 550.165 564.7C549.165 565 548.115 565.2 547.015 565.3C546.015 565.4 544.965 565.45 543.865 565.45C540.365 565.45 537.215 564.9 534.415 563.8C531.615 562.6 529.215 561.25 527.215 559.75C529.515 562.05 532.265 563.7 535.465 564.7C538.665 565.6 541.815 566.05 544.915 566.05C546.615 566.05 548.365 565.9 550.165 565.6C549.965 566.2 549.865 566.55 549.865 566.65C549.865 567.25 550.115 567.65 550.615 567.85C551.015 567.75 551.715 567.5 552.715 567.1C553.715 566.6 554.715 566.15 555.715 565.75C556.815 565.25 557.865 564.85 558.865 564.55C559.865 564.15 560.565 563.95 560.965 563.95C561.465 563.95 561.915 564.05 562.315 564.25C562.715 564.35 562.915 564.9 562.915 565.9C562.915 566.9 562.565 568.1 561.865 569.5C561.165 570.9 560.115 572.3 558.715 573.7ZM538.015 514.3L541.315 514.9C542.415 515.1 543.415 515.2 544.315 515.2C545.315 515.2 546.465 514.9 547.765 514.3C549.165 513.6 550.515 512.65 551.815 511.45C553.215 510.25 554.415 508.75 555.415 506.95C556.515 505.15 557.315 503.1 557.815 500.8L558.115 499.9C556.715 499.9 554.615 500.25 551.815 500.95C549.015 501.65 546.115 502.6 543.115 503.8C540.115 504.9 537.315 506.25 534.715 507.85C532.115 509.35 530.315 511 529.315 512.8C530.815 513.1 532.265 513.4 533.665 513.7C535.165 513.9 536.615 514.1 538.015 514.3ZM531.115 525.4C531.315 525.2 531.415 524.9 531.415 524.5C531.515 524.1 531.565 523.8 531.565 523.6L524.515 521.05L523.765 523.15L531.115 525.4ZM526.915 559.45C526.215 558.65 525.515 557.85 524.815 557.05C524.215 556.35 523.715 555.65 523.315 554.95C524.215 556.65 525.415 558.15 526.915 559.45ZM594.002 563.2C594.402 560.4 594.752 557.15 595.052 553.45C595.452 549.65 595.802 545.85 596.102 542.05C596.402 538.25 596.702 534.55 597.002 530.95C597.302 527.25 597.602 524.05 597.902 521.35C597.402 524.05 596.952 527.15 596.552 530.65C596.152 534.15 595.752 537.75 595.352 541.45C594.952 545.15 594.552 548.85 594.152 552.55C593.752 556.15 593.402 559.4 593.102 562.3C591.602 561.3 590.852 559.95 590.852 558.25C590.852 556.25 590.902 554.6 591.002 553.3C591.102 551.9 591.252 550.3 591.452 548.5L593.102 547C593.002 546.5 592.952 546.05 592.952 545.65V544.15C592.952 541.85 593.202 539.25 593.702 536.35C594.202 533.35 594.752 530.35 595.352 527.35C596.052 524.25 596.652 521.3 597.152 518.5C597.652 515.6 597.902 513.1 597.902 511L596.102 510.55C595.902 512.95 595.602 515.7 595.202 518.8C594.802 521.8 594.352 524.95 593.852 528.25C593.452 531.45 593.052 534.65 592.652 537.85C592.452 539.55 592.252 541.15 592.052 542.65C592.252 539.85 592.502 536.85 592.802 533.65C593.302 529.05 593.802 524.5 594.302 520C594.902 515.4 595.452 510.9 595.952 506.5C596.452 502.1 596.952 498.05 597.452 494.35C597.452 492.85 597.802 491.25 598.502 489.55C599.302 487.75 599.852 485.9 600.152 484C600.752 484.2 601.252 484.3 601.652 484.3H602.702C603.702 484.3 604.352 484.55 604.652 485.05C604.952 485.45 605.102 486.05 605.102 486.85V487.6L606.452 488.05C607.252 486.55 608.202 485.35 609.302 484.45C610.402 483.55 611.502 483.1 612.602 483.1C615.002 483.1 616.202 485.65 616.202 490.75C616.202 493.45 615.902 496.35 615.302 499.45C614.802 502.45 614.552 505.4 614.552 508.3V510.25C614.552 513.45 614.202 516.95 613.502 520.75C612.802 524.45 612.002 528.25 611.102 532.15C610.302 535.95 609.552 539.65 608.852 543.25C608.152 546.85 607.802 550.15 607.802 553.15C607.802 553.85 607.852 554.6 607.952 555.4C608.052 556.2 608.102 556.95 608.102 557.65C608.102 559.15 607.802 560.1 607.202 560.5C606.702 560.8 606.052 560.95 605.252 560.95C605.252 559.65 605.202 558.05 605.102 556.15C605.002 554.25 604.952 552.55 604.952 551.05C604.752 552.15 604.652 553.65 604.652 555.55C604.652 557.45 604.552 559.25 604.352 560.95H602.102V562.75C601.202 564.35 600.002 565.15 598.502 565.15C597.802 565.15 597.002 564.95 596.102 564.55C595.202 564.15 594.502 563.7 594.002 563.2ZM624.902 448C623.202 449 621.652 450.3 620.252 451.9C618.852 453.5 617.402 455.05 615.902 456.55C616.802 455.95 617.602 455.3 618.302 454.6C619.002 453.9 619.702 453.2 620.402 452.5C621.202 451.8 622.002 451.1 622.802 450.4C623.702 449.7 624.702 449.05 625.802 448.45C626.102 448.85 626.352 449.2 626.552 449.5C626.852 449.8 627.002 450.1 627.002 450.4L623.552 453.85C623.552 453.65 623.352 453.45 622.952 453.25C622.652 453.05 622.402 452.95 622.202 452.95C621.902 453.95 621.402 454.75 620.702 455.35C620.002 455.95 619.302 456.5 618.602 457C617.902 457.5 617.202 458.05 616.502 458.65C615.802 459.25 615.302 460.05 615.002 461.05V461.35C615.002 461.45 615.152 461.5 615.452 461.5L622.952 454.45L620.102 457.3C618.702 458.7 617.202 460.15 615.602 461.65C614.102 463.05 612.652 464.3 611.252 465.4C609.952 466.5 609.152 467.05 608.852 467.05L608.702 466.9C608.002 466.7 607.252 466.6 606.452 466.6C605.752 466.6 605.002 466.55 604.202 466.45C604.202 465.65 604.052 464.8 603.752 463.9C603.552 463 603.452 462.3 603.452 461.8C603.452 461.3 603.702 461.05 604.202 461.05C604.202 460.75 604.002 460.3 603.602 459.7C603.302 459 602.952 458.25 602.552 457.45C602.152 456.55 601.752 455.65 601.352 454.75C601.052 453.75 600.902 452.75 600.902 451.75C600.902 450.75 601.302 449.8 602.102 448.9C603.002 447.9 604.002 447.05 605.102 446.35C606.302 445.65 607.452 445.05 608.552 444.55C609.652 444.05 610.452 443.7 610.952 443.5C611.352 443.5 611.502 443.3 611.402 442.9C611.302 442.4 611.452 442.15 611.852 442.15L614.552 443.05C614.352 443.55 613.702 444.4 612.602 445.6C611.602 446.7 610.852 447.5 610.352 448C611.052 447.5 611.852 446.75 612.752 445.75C613.752 444.75 614.502 444 615.002 443.5C615.502 443.7 615.952 443.9 616.352 444.1C616.752 444.3 617.052 444.4 617.252 444.4L617.702 443.95C618.402 443.95 619.152 444.1 619.952 444.4C620.852 444.7 621.652 445.05 622.352 445.45C623.052 445.85 623.652 446.3 624.152 446.8C624.652 447.3 624.902 447.7 624.902 448ZM591.752 546.25C591.852 545.15 591.952 544.05 592.052 542.95C591.952 544.15 591.852 545.25 591.752 546.25ZM640.527 561.4C640.527 560.9 640.677 560.3 640.977 559.6C641.277 558.9 641.427 558.15 641.427 557.35C641.727 554.95 641.927 553.25 642.027 552.25C642.127 551.15 642.177 550.2 642.177 549.4C642.177 545.2 642.027 540.7 641.727 535.9C641.527 531 641.277 526.3 640.977 521.8C640.977 520.4 640.927 518.75 640.827 516.85C640.827 514.95 640.727 513.45 640.527 512.35C640.827 508.85 641.077 505.4 641.277 502C641.477 498.6 641.577 495.15 641.577 491.65V487.9C641.577 486.6 641.527 485.3 641.427 484C641.727 484.3 642.027 484.45 642.327 484.45C642.727 484.45 643.127 484.3 643.527 484C644.027 483.7 644.477 483.55 644.877 483.55C645.577 483.55 646.127 484.3 646.527 485.8C647.027 487.3 647.277 490.6 647.277 495.7H648.627C649.127 490.1 649.877 485.65 650.877 482.35C651.977 479.05 653.077 477.4 654.177 477.4C654.677 477.4 655.477 478.5 656.577 480.7C657.677 482.8 658.227 486.15 658.227 490.75L659.877 488.05C660.977 486.75 662.177 485.4 663.477 484C664.877 482.6 666.427 481.35 668.127 480.25C669.827 479.15 671.727 478.25 673.827 477.55C675.927 476.75 678.327 476.35 681.027 476.35C686.227 476.35 690.727 477.55 694.527 479.95C698.427 482.25 701.677 485.3 704.277 489.1C706.877 492.8 708.977 497.05 710.577 501.85C712.277 506.55 713.577 511.35 714.477 516.25C715.377 521.05 715.977 525.7 716.277 530.2C716.577 534.7 716.727 538.55 716.727 541.75C716.727 544.65 716.527 546.4 716.127 547C715.827 547.5 715.227 547.8 714.327 547.9C714.127 540.2 713.627 532.35 712.827 524.35C712.027 516.35 710.127 508.6 707.127 501.1C709.827 509 711.527 516.8 712.227 524.5C713.027 532.1 713.427 539.75 713.427 547.45C712.827 547.15 712.277 547 711.777 547C711.377 547 711.027 547.15 710.727 547.45C710.727 548.25 710.777 549.1 710.877 550C710.977 550.8 711.027 551.6 711.027 552.4C711.127 553.2 711.177 553.95 711.177 554.65C710.577 556.95 709.977 558.6 709.377 559.6C708.777 560.6 708.227 561.1 707.727 561.1C707.127 561.1 706.627 560.85 706.227 560.35C705.827 559.75 705.427 559.05 705.027 558.25C704.727 557.45 704.377 556.6 703.977 555.7C703.677 554.7 703.227 553.75 702.627 552.85C702.827 551.15 702.977 549.8 703.077 548.8C703.177 547.7 703.227 546.8 703.227 546.1C703.227 543.4 703.177 540.15 703.077 536.35C702.977 532.55 702.677 528.6 702.177 524.5C701.777 520.3 701.077 516.15 700.077 512.05C699.177 507.85 697.877 504.15 696.177 500.95C694.577 497.65 692.527 495 690.027 493C687.527 490.9 684.527 489.85 681.027 489.85C678.627 489.85 676.477 490.65 674.577 492.25C672.777 493.85 671.177 495.9 669.777 498.4C668.477 500.9 667.327 503.65 666.327 506.65C665.327 509.55 664.527 512.35 663.927 515.05C664.827 512.25 665.727 509.4 666.627 506.5C667.627 503.6 668.777 500.95 670.077 498.55C671.477 496.15 673.077 494.2 674.877 492.7C676.677 491.1 678.777 490.3 681.177 490.3C684.277 490.3 686.927 491.15 689.127 492.85C691.427 494.55 693.327 496.75 694.827 499.45C696.427 502.15 697.677 505.25 698.577 508.75C699.577 512.15 700.327 515.65 700.827 519.25C701.327 522.75 701.627 526.2 701.727 529.6C701.927 532.9 702.027 535.75 702.027 538.15C702.027 540.05 701.977 541.95 701.877 543.85C701.877 545.75 701.827 547.7 701.727 549.7C700.827 545.9 700.127 541.95 699.627 537.85C699.227 533.65 698.777 529.55 698.277 525.55C697.777 521.45 697.127 517.55 696.327 513.85C695.627 510.05 694.577 506.55 693.177 503.35L694.227 501.85C693.227 499.55 692.077 497.8 690.777 496.6C689.577 495.3 688.377 494.35 687.177 493.75C685.977 493.15 684.877 492.8 683.877 492.7C682.877 492.6 682.227 492.55 681.927 492.55C679.427 492.55 677.177 493.45 675.177 495.25C673.277 497.05 671.577 499.5 670.077 502.6C668.677 505.6 667.427 509.1 666.327 513.1C665.227 517.1 664.277 521.3 663.477 525.7C662.677 530.1 661.977 534.55 661.377 539.05C660.777 543.45 660.277 547.6 659.877 551.5H661.227C661.727 548.1 662.227 544.35 662.727 540.25C663.327 536.15 663.927 532 664.527 527.8C665.227 523.5 666.027 519.35 666.927 515.35C667.827 511.35 668.877 507.75 670.077 504.55C671.377 501.35 672.877 498.75 674.577 496.75C676.177 494.85 678.127 493.75 680.427 493.45C678.227 493.95 676.377 495.35 674.877 497.65C673.277 500.05 671.877 503 670.677 506.5C669.477 510 668.377 513.85 667.377 518.05C666.477 522.15 665.627 526.1 664.827 529.9L661.827 551.8C661.427 553.2 661.127 554.45 660.927 555.55L660.327 558.7C660.127 559.7 659.927 560.8 659.727 562C659.527 563.1 659.277 564.4 658.977 565.9L658.527 567.7H657.627L642.477 562.6C641.977 562.5 641.577 562.35 641.277 562.15C641.077 561.95 640.827 561.7 640.527 561.4ZM666.627 484.45C664.627 486.15 663.027 488 661.827 490C660.727 491.9 659.677 493.85 658.677 495.85V496C660.077 493.1 662.027 490.15 664.527 487.15C666.927 484.35 670.127 482.25 674.127 480.85C672.827 481.25 671.577 481.65 670.377 482.05C668.977 482.55 667.727 483.35 666.627 484.45ZM684.627 479.5C684.127 479.4 683.427 479.35 682.527 479.35C685.727 480.15 688.727 481.05 691.527 482.05C694.327 482.95 696.977 484.8 699.477 487.6C697.777 485.3 695.527 483.5 692.727 482.2C690.027 480.9 687.327 480 684.627 479.5ZM688.677 496.6C687.877 496 686.927 495.55 685.827 495.25C684.827 494.85 683.577 494.35 682.077 493.75L681.927 493.45C683.627 493.55 685.127 493.95 686.427 494.65C687.727 495.25 688.977 496.35 690.177 497.95L688.677 496.6ZM699.777 487.9C701.177 489.6 702.477 491.55 703.677 493.75C704.877 495.95 705.927 497.9 706.827 499.6C705.827 497.3 704.877 495.2 703.977 493.3C703.077 491.4 701.677 489.6 699.777 487.9Z" fill="#282828"/>
<path d="M748.95 546.85C750.55 547.35 752.45 548.25 754.65 549.55C756.95 550.85 759.5 552.2 762.3 553.6C765.1 555 768.15 556.25 771.45 557.35C774.85 558.45 778.45 559 782.25 559H783.9C784.5 559 785.2 558.9 786 558.7L787.65 559.9C791.55 558.7 794.75 556.45 797.25 553.15C799.75 549.75 801 545.2 801 539.5C801 535.4 800 532.6 798 531.1C796.1 529.5 792.55 528.7 787.35 528.7C784.15 528.7 780.8 528.95 777.3 529.45C773.9 529.85 770.3 530.05 766.5 530.05C764.8 530.05 763.05 530 761.25 529.9C759.45 529.7 757.6 529.35 755.7 528.85V529.75C759.7 530.75 763.65 531.25 767.55 531.25C771.35 531.25 774.95 531.05 778.35 530.65C781.85 530.15 785.2 529.9 788.4 529.9C791.1 529.9 793.2 530.2 794.7 530.8C796.3 531.3 797.5 532 798.3 532.9C799.1 533.8 799.6 534.9 799.8 536.2C800.1 537.4 800.25 538.75 800.25 540.25C800.25 544.95 799 548.95 796.5 552.25C794.1 555.35 791.25 557.3 787.95 558.1C791.65 556.8 794.55 554.55 796.65 551.35C798.85 547.95 799.95 544.15 799.95 539.95C799.95 536.95 799.15 534.65 797.55 533.05C796.05 531.45 793.4 530.65 789.6 530.65C786.5 530.65 783 530.85 779.1 531.25C775.2 531.65 771.05 531.85 766.65 531.85C763.95 531.85 760.8 531.5 757.2 530.8C753.7 530.1 750.35 528.8 747.15 526.9C743.95 525 741.25 522.4 739.05 519.1C736.85 515.7 735.75 511.3 735.75 505.9C735.75 501.6 736.6 497.65 738.3 494.05C740.1 490.35 742.45 487.15 745.35 484.45C748.25 481.65 751.55 479.45 755.25 477.85C759.05 476.25 762.95 475.4 766.95 475.3C770.75 475.3 774.35 475.85 777.75 476.95C781.25 477.95 784.55 479.3 787.65 481C790.75 482.6 793.7 484.4 796.5 486.4C799.3 488.4 801.9 490.4 804.3 492.4L801.3 495.4C800.6 495.4 799.55 495 798.15 494.2C796.75 493.3 794.6 491.8 791.7 489.7L790.8 491.05C794.4 493.95 797 496.65 798.6 499.15C800.3 501.65 801.15 503.6 801.15 505C800.95 505.8 800.45 506.2 799.65 506.2C798.85 506.2 797.25 505.55 794.85 504.25C792.45 502.95 789.7 501.5 786.6 499.9C783.6 498.3 780.4 496.85 777 495.55C773.6 494.25 770.5 493.6 767.7 493.6C766.1 493.6 764.5 493.9 762.9 494.5C761.3 495.1 759.85 495.95 758.55 497.05C757.25 498.05 756.15 499.3 755.25 500.8C754.45 502.3 754.05 503.95 754.05 505.75C754.05 508.65 755.4 510.6 758.1 511.6C760.8 512.6 764.35 513.1 768.75 513.1C769.65 513.1 770.6 513.1 771.6 513.1C772.7 513 773.7 512.85 774.6 512.65C776.9 512.65 778.4 512.6 779.1 512.5C779.9 512.3 780.65 512.2 781.35 512.2C785.65 512.2 789.95 512.5 794.25 513.1C798.55 513.7 802.4 515 805.8 517C809.2 519 811.95 521.85 814.05 525.55C816.15 529.25 817.2 534.2 817.2 540.4C817.2 544.7 816.45 549 814.95 553.3C813.55 557.5 811.4 561.3 808.5 564.7C805.6 568 802 570.65 797.7 572.65C793.4 574.75 788.35 575.8 782.55 575.8C779.05 575.8 774.9 575.1 770.1 573.7C765.4 572.4 760.9 570.85 756.6 569.05C752.4 567.15 748.8 565.2 745.8 563.2C742.9 561.2 741.45 559.5 741.45 558.1C741.45 557.7 741.7 557.4 742.2 557.2C748.3 561.7 754.5 565.4 760.8 568.3C767 571 773.35 572.5 779.85 572.8C776.65 572.6 773.45 572.05 770.25 571.15C766.95 570.15 763.65 568.95 760.35 567.55C757.15 566.05 754.05 564.4 751.05 562.6C748.15 560.7 745.35 558.8 742.65 556.9L744.9 554.95C744.6 554.85 744.05 554.5 743.25 553.9C742.45 553.3 741.65 552.55 740.85 551.65C740.15 550.75 739.5 549.8 738.9 548.8C738.3 547.8 738 546.85 738 545.95C738 544.95 738.2 544.3 738.6 544C739 543.7 739.45 543.55 739.95 543.55C740.45 543.55 741.5 543.9 743.1 544.6C744.7 545.3 746.65 546.05 748.95 546.85ZM782.1 562.15C778.6 562.15 774.7 561.45 770.4 560.05C766.2 558.55 762.2 556.65 758.4 554.35C761.5 556.45 764.95 558.35 768.75 560.05C772.55 561.65 776.95 562.45 781.95 562.45C788.65 562.45 793.95 560.4 797.85 556.3C801.85 552.2 803.85 546.7 803.85 539.8V538.3C803.35 535.1 802.25 532.5 800.55 530.5C798.95 528.4 796.45 527.25 793.05 527.05C795.15 527.45 796.85 528.1 798.15 529C799.55 529.9 800.6 531 801.3 532.3C802.1 533.5 802.65 534.85 802.95 536.35C803.25 537.85 803.4 539.4 803.4 541C803 547.6 800.9 552.8 797.1 556.6C793.3 560.3 788.3 562.15 782.1 562.15ZM801.15 568C803.65 566.4 805.65 564.45 807.15 562.15C808.65 559.85 809.95 557.45 811.05 554.95C808.95 559.15 806.05 562.85 802.35 566.05C798.75 569.25 794.45 571.25 789.45 572.05C791.35 571.75 793.3 571.35 795.3 570.85C797.4 570.25 799.35 569.3 801.15 568ZM815.4 539.8C815.4 538.7 815.2 537.65 814.8 536.65C814.5 535.85 814.25 535 814.05 534.1L814.2 536.05C814.3 536.85 814.35 537.95 814.35 539.35C814.35 542.05 814.05 544.65 813.45 547.15C812.85 549.65 812.1 552.1 811.2 554.5C812.1 552.3 812.95 550 813.75 547.6C814.65 545.1 815.2 542.5 815.4 539.8ZM814.05 533.65C814.05 533.75 814.05 533.9 814.05 534.1C814.05 533.9 814.05 533.75 814.05 533.65ZM787.8 558.25C787.7 558.25 787.6 558.25 787.5 558.25C787.6 558.25 787.7 558.25 787.8 558.25ZM888.687 496C887.787 496 886.537 496.15 884.937 496.45C883.437 496.75 881.887 497.1 880.287 497.5C878.787 497.9 877.387 498.3 876.087 498.7C874.887 499.1 874.137 499.4 873.837 499.6C876.437 499.2 878.837 498.75 881.037 498.25C883.237 497.65 885.637 497.35 888.237 497.35C887.737 498.25 887.087 498.95 886.287 499.45C885.487 499.95 884.587 500.35 883.587 500.65C882.687 500.85 881.687 501.05 880.587 501.25C879.487 501.35 878.337 501.55 877.137 501.85L876.087 500.5C874.187 501.2 872.737 501.65 871.737 501.85C870.737 501.95 869.687 502 868.587 502C867.387 502 866.137 502 864.837 502C863.637 501.9 862.287 501.85 860.787 501.85C860.787 502.35 860.737 502.75 860.637 503.05C862.937 503.05 864.887 503.05 866.487 503.05C868.087 502.95 870.037 502.75 872.337 502.45C870.137 502.85 868.187 503.15 866.487 503.35C864.887 503.55 862.937 503.65 860.637 503.65C860.237 505.95 859.887 508.2 859.587 510.4C859.287 512.6 859.137 514.75 859.137 516.85C859.137 518.05 859.187 519.45 859.287 521.05C859.387 522.65 859.487 524.3 859.587 526C859.787 527.6 859.937 529.15 860.037 530.65C860.137 532.05 860.187 533.1 860.187 533.8V542.8C860.687 544.8 862.137 546.3 864.537 547.3C866.937 548.3 870.387 548.8 874.887 548.8H879.687C881.387 548.8 882.537 549 883.137 549.4C883.837 549.7 884.187 550.15 884.187 550.75C884.187 551.25 883.787 551.55 882.987 551.65C882.187 551.65 881.387 551.65 880.587 551.65C877.687 551.65 874.637 551.45 871.437 551.05C868.437 550.65 865.487 550.2 862.587 549.7C865.487 550.4 868.537 551.05 871.737 551.65C875.037 552.15 878.237 552.4 881.337 552.4H882.687C883.087 552.4 883.537 552.35 884.037 552.25C884.037 552.75 884.037 553.2 884.037 553.6C884.137 554 884.287 554.45 884.487 554.95L885.687 554.65C885.987 554.55 886.337 554.5 886.737 554.5C887.137 554.4 887.437 554.25 887.637 554.05C890.837 554.35 892.437 555.45 892.437 557.35C892.437 558.45 892.137 559.35 891.537 560.05C890.937 560.75 890.187 561.3 889.287 561.7C888.387 562.1 887.387 562.4 886.287 562.6C885.187 562.7 884.137 562.75 883.137 562.75C879.637 562.75 876.187 562.55 872.787 562.15C869.487 561.65 866.237 561.15 863.037 560.65C865.837 561.65 869.387 562.45 873.687 563.05C877.987 563.65 882.337 563.95 886.737 563.95C885.637 564.65 884.337 565.2 882.837 565.6C881.337 566 879.787 566.2 878.187 566.2L867.387 564.85C865.987 564.65 864.887 564.45 864.087 564.25C863.387 564.05 862.687 563.85 861.987 563.65C861.287 563.35 860.487 563.05 859.587 562.75C858.787 562.45 857.637 562.1 856.137 561.7V560.05C853.537 559.35 851.437 558.15 849.837 556.45C848.237 554.75 846.987 552.9 846.087 550.9C845.187 548.9 844.587 546.9 844.287 544.9C843.987 542.8 843.837 540.95 843.837 539.35C843.837 537.65 843.837 536.1 843.837 534.7C843.937 533.2 843.987 531.7 843.987 530.2C843.987 529.1 843.937 527.7 843.837 526C843.837 524.3 843.787 522.5 843.687 520.6C843.587 518.7 843.487 516.75 843.387 514.75C843.387 512.75 843.387 510.85 843.387 509.05C843.387 507.95 843.387 506.9 843.387 505.9C843.487 504.9 843.587 504 843.687 503.2H842.187C842.087 503.9 842.037 504.7 842.037 505.6V508.3C842.037 511.2 842.087 514.1 842.187 517C842.287 519.8 842.337 522.4 842.337 524.8C842.437 527.2 842.537 529.3 842.637 531.1C842.737 532.8 842.787 534.05 842.787 534.85V540.85V542.05C842.487 539.35 842.187 535.5 841.887 530.5C841.587 524.7 841.437 518.3 841.437 511.3V508.6C841.437 507.5 841.437 506.45 841.437 505.45C841.537 504.45 841.687 503.7 841.887 503.2L836.787 502.9C835.687 502.2 834.587 501.65 833.487 501.25C832.387 500.85 831.387 500.65 830.487 500.65V497.65C830.487 497.05 830.537 496.55 830.637 496.15C830.837 495.65 831.337 495.4 832.137 495.4C832.337 495.4 832.837 495.5 833.637 495.7V493.9C832.537 493.3 831.637 492.5 830.937 491.5C830.237 490.4 829.887 489.3 829.887 488.2C829.887 485.6 831.737 484.3 835.437 484.3C836.837 484.3 838.287 484.4 839.787 484.6C841.287 484.8 842.837 484.95 844.437 485.05C844.837 482.85 845.187 480.9 845.487 479.2C845.787 477.4 846.087 475.7 846.387 474.1C846.687 472.4 847.037 470.75 847.437 469.15C847.837 467.45 848.337 465.7 848.937 463.9C849.837 461.9 850.537 459.75 851.037 457.45C851.537 455.05 851.887 452.7 852.087 450.4L855.237 450.55C855.737 450.55 856.137 450.7 856.437 451C856.837 451.3 857.037 452 857.037 453.1C857.037 454 856.887 455.2 856.587 456.7L858.387 457.15C859.187 454.45 860.137 452.25 861.237 450.55C862.437 448.85 863.587 448 864.687 448C866.387 448 867.437 450.15 867.837 454.45V457.15C867.837 459.75 867.637 462.2 867.237 464.5C866.937 466.7 866.537 468.9 866.037 471.1C865.537 473.3 865.037 475.55 864.537 477.85C864.037 480.15 863.587 482.65 863.187 485.35C865.387 485.65 867.537 485.8 869.637 485.8C870.637 485.8 871.637 485.8 872.637 485.8C873.637 485.7 874.637 485.65 875.637 485.65C876.637 485.65 877.687 485.25 878.787 484.45C879.887 483.65 880.887 483.25 881.787 483.25C882.587 483.25 883.187 483.5 883.587 484C883.987 484.5 884.187 485.05 884.187 485.65C882.387 486.15 880.587 486.7 878.787 487.3C877.087 487.8 875.437 488.3 873.837 488.8C875.437 488.6 877.137 488.25 878.937 487.75C880.737 487.15 882.637 486.6 884.637 486.1C884.637 486.6 884.637 487.05 884.637 487.45C884.737 487.85 884.887 488.3 885.087 488.8C885.287 488.8 885.537 488.75 885.837 488.65C886.437 488.45 886.787 488.35 886.887 488.35C887.887 488.85 888.537 489.5 888.837 490.3C889.137 491 889.287 491.8 889.287 492.7C889.287 493.4 889.187 494.05 888.987 494.65C888.787 495.15 888.687 495.6 888.687 496ZM848.937 551.35C847.537 548.65 846.787 546 846.687 543.4C846.587 540.8 846.437 538.35 846.237 536.05L844.887 513.25L844.437 515.95C844.437 522.65 844.637 528.75 845.037 534.25C845.537 539.65 846.237 543.85 847.137 546.85C847.137 547.75 847.087 548.35 846.987 548.65C846.987 548.95 846.987 549.2 846.987 549.4C846.987 549.6 847.087 549.85 847.287 550.15C847.587 550.45 848.137 550.85 848.937 551.35ZM857.487 543.25C857.287 542.45 857.187 541.6 857.187 540.7V533.35C857.087 534.35 856.987 535.35 856.887 536.35C856.787 537.25 856.737 538.2 856.737 539.2C856.737 541.8 856.887 543.8 857.187 545.2C857.487 546.4 858.087 547.4 858.987 548.2C858.487 547.6 858.137 546.95 857.937 546.25C857.837 545.45 857.687 544.45 857.487 543.25ZM842.937 543.1L842.787 542.05L842.937 543.1ZM859.287 548.35C859.187 548.25 859.087 548.2 858.987 548.2C859.087 548.2 859.187 548.25 859.287 548.35ZM903.171 611.35C903.971 612.15 905.321 612.75 907.221 613.15C909.221 613.65 911.121 613.9 912.921 613.9C916.221 613.9 919.371 612.8 922.371 610.6C925.371 608.5 928.221 605.6 930.921 601.9C933.721 598.2 936.371 593.95 938.871 589.15C941.371 584.35 943.771 579.3 946.071 574H945.921C943.921 578.4 941.771 582.9 939.471 587.5C937.171 592.2 934.671 596.45 931.971 600.25C929.271 604.15 926.321 607.3 923.121 609.7C920.021 612.2 916.671 613.45 913.071 613.45C910.171 613.45 907.321 612.6 904.521 610.9C906.021 610.4 907.421 610.15 908.721 610.15C909.121 610.15 909.821 610.25 910.821 610.45C912.421 610.45 913.771 610.4 914.871 610.3C915.971 610.2 917.021 609.95 918.021 609.55C919.021 609.25 919.971 608.7 920.871 607.9C921.771 607.2 922.771 606.25 923.871 605.05L925.671 605.5C928.571 601.7 931.271 597.6 933.771 593.2C936.371 588.8 938.921 584.35 941.421 579.85L944.121 573.85L942.771 573.55L940.521 578.95C938.221 583.45 935.821 587.85 933.321 592.15C930.821 596.55 927.971 600.55 924.771 604.15C928.271 599.85 931.471 595.05 934.371 589.75C937.271 584.45 939.921 578.95 942.321 573.25L941.421 571.75C940.921 569.45 940.171 567.2 939.171 565C938.471 563.3 937.671 561.55 936.771 559.75C938.571 564.05 939.821 568.2 940.521 572.2C939.521 571.9 938.671 571.3 937.971 570.4C937.371 569.4 936.771 568.25 936.171 566.95C935.671 565.65 935.171 564.3 934.671 562.9C934.271 561.5 933.721 560.1 933.021 558.7L933.771 557.35C932.171 554.85 930.421 551.75 928.521 548.05C926.721 544.35 924.771 540.55 922.671 536.65C920.671 532.75 918.621 528.95 916.521 525.25C914.421 521.55 912.371 518.45 910.371 515.95L909.921 516.4L928.671 550.15C924.871 543.75 920.821 537.25 916.521 530.65C912.221 524.05 908.371 516.75 904.971 508.75C904.971 508.05 904.871 507.15 904.671 506.05C904.471 504.85 904.221 503.65 903.921 502.45C903.721 501.15 903.471 499.9 903.171 498.7C902.871 497.4 902.571 496.25 902.271 495.25L906.171 494.05C906.671 494.05 907.121 494.3 907.521 494.8C907.921 495.2 908.271 496.1 908.571 497.5C909.071 497.5 909.521 497.1 909.921 496.3C910.321 495.5 910.721 494.6 911.121 493.6C911.621 492.6 912.121 491.7 912.621 490.9C913.221 490.1 913.971 489.7 914.871 489.7C916.171 489.7 917.321 490.6 918.321 492.4C919.421 494.1 920.421 496.2 921.321 498.7C922.321 501.2 923.371 503.85 924.471 506.65C925.571 509.35 926.871 511.7 928.371 513.7C929.971 516.4 931.571 519.05 933.171 521.65C934.871 524.25 936.421 527 937.821 529.9C939.321 533.9 941.271 537.95 943.671 542.05C946.071 546.05 947.971 550.25 949.371 554.65C951.771 546.65 953.671 539.55 955.071 533.35C956.571 527.05 957.721 520.8 958.521 514.6C959.621 511.4 960.571 507.8 961.371 503.8C962.171 499.8 962.571 495.9 962.571 492.1L965.871 492.25C966.371 492.25 966.821 492.5 967.221 493C967.621 493.4 967.821 494.45 967.821 496.15C967.821 496.65 967.771 497.2 967.671 497.8C967.671 498.3 967.621 498.95 967.521 499.75H968.871C969.771 496.45 970.821 493.8 972.021 491.8C973.221 489.8 974.371 488.8 975.471 488.8C976.271 488.8 977.021 489.65 977.721 491.35C978.521 493.05 978.921 495.9 978.921 499.9C978.921 506.6 978.121 513.85 976.521 521.65C974.921 529.45 973.271 537.15 971.571 544.75C968.771 554.95 965.471 564.75 961.671 574.15C957.871 583.55 953.071 593.1 947.271 602.8C945.471 605.5 943.421 608.3 941.121 611.2C938.921 614.2 936.321 616.9 933.321 619.3C930.421 621.7 927.071 623.65 923.271 625.15C919.571 626.75 915.321 627.55 910.521 627.55C907.021 627.55 904.621 627.1 903.321 626.2C902.121 625.3 901.521 624.6 901.521 624.1C901.521 623.8 901.621 623.45 901.821 623.05C904.821 624.05 908.021 624.55 911.421 624.55C913.821 624.55 916.571 624.1 919.671 623.2C922.871 622.4 925.721 621.15 928.221 619.45C925.921 620.65 923.321 621.7 920.421 622.6C917.621 623.5 915.071 623.95 912.771 623.95C909.171 623.95 905.671 623.5 902.271 622.6C902.271 621.9 901.971 621.25 901.371 620.65C900.871 620.05 900.271 619.45 899.571 618.85C898.871 618.35 898.221 617.8 897.621 617.2C897.121 616.6 896.871 615.9 896.871 615.1C896.871 614.3 897.121 613.7 897.621 613.3C898.121 612.9 898.671 612.6 899.271 612.4C899.971 612.2 900.671 612 901.371 611.8C902.071 611.7 902.671 611.55 903.171 611.35ZM953.571 584.8C950.671 590 947.671 595.2 944.571 600.4C941.471 605.7 937.571 610.7 932.871 615.4C937.671 610.9 941.621 606 944.721 600.7C947.921 595.5 950.871 590.2 953.571 584.8ZM942.321 547.15L947.271 559.45L948.171 558.55L942.321 547.15ZM950.271 557.35C950.671 556.15 951.021 554.95 951.321 553.75L952.221 550.15L951.321 549.7L949.671 555.55C949.871 556.35 950.071 556.95 950.271 557.35ZM933.321 551.95C932.221 549.35 930.921 546.8 929.421 544.3C928.021 541.7 926.471 539.15 924.771 536.65C926.271 539.55 927.821 542.45 929.421 545.35C931.021 548.05 932.521 550.8 933.921 553.6L933.321 551.95ZM936.921 534.85C937.021 536.35 937.221 537.6 937.521 538.6C937.921 539.6 938.321 540.5 938.721 541.3C939.221 542 939.671 542.7 940.071 543.4C940.571 544 941.021 544.75 941.421 545.65L941.121 545.2L936.921 534.85ZM948.471 559.15L947.421 560.35C947.621 560.65 947.821 560.95 948.021 561.25C948.221 561.45 948.371 561.75 948.471 562.15L949.221 560.95L948.471 559.15ZM1033.62 558.25C1033.02 558.25 1032.42 558.55 1031.82 559.15C1029.72 559.95 1027.52 560.65 1025.22 561.25C1023.02 561.75 1020.72 562 1018.32 562C1011.52 562 1006.42 560.05 1003.02 556.15C999.623 552.15 997.923 546.4 997.923 538.9C997.923 535.3 998.073 531.7 998.373 528.1C998.673 524.6 998.873 521.35 998.973 518.35C998.673 521.45 998.323 524.55 997.923 527.65C997.423 530.95 997.173 534.4 997.173 538C997.173 539.8 997.323 542.1 997.623 544.9C998.023 547.7 998.923 550.45 1000.32 553.15C1001.72 555.75 1003.87 558.05 1006.77 560.05C1009.67 561.95 1013.67 562.9 1018.77 562.9C1021.17 562.9 1023.47 562.65 1025.67 562.15C1027.97 561.55 1030.17 560.85 1032.27 560.05C1030.87 561.75 1028.97 563.1 1026.57 564.1C1024.27 565.1 1021.52 565.6 1018.32 565.6C1014.22 565.6 1010.22 564.75 1006.32 563.05C1002.52 561.35 999.623 558.5 997.623 554.5L998.523 552.85C996.723 549.65 995.723 546.8 995.523 544.3C995.323 541.7 995.123 539.15 994.923 536.65L997.473 510.4C997.973 505.9 998.323 501.4 998.523 496.9L998.073 496.6C997.273 501.3 996.623 505.8 996.123 510.1C995.623 514.3 995.223 518.45 994.923 522.55V518.65C995.523 514.05 996.073 509.55 996.573 505.15C997.073 500.65 997.723 496.1 998.523 491.5C999.323 486.9 1000.32 482.1 1001.52 477.1C1002.82 472.1 1004.52 466.75 1006.62 461.05C1009.42 457.25 1011.07 453.5 1011.57 449.8C1011.87 449.8 1012.17 449.85 1012.47 449.95C1012.77 450.05 1013.37 450.1 1014.27 450.1C1014.87 450.1 1015.37 450.25 1015.77 450.55C1016.27 450.75 1016.52 451.25 1016.52 452.05C1016.52 452.95 1016.22 454.3 1015.62 456.1C1015.82 456.1 1016.12 456.2 1016.52 456.4C1016.92 456.5 1017.22 456.55 1017.42 456.55C1018.82 454.15 1020.07 452.1 1021.17 450.4C1022.37 448.7 1023.52 447.85 1024.62 447.85C1025.32 447.85 1025.92 448.3 1026.42 449.2C1027.02 450 1027.32 451.35 1027.32 453.25C1027.12 456.85 1026.52 460.25 1025.52 463.45C1024.62 466.65 1023.62 469.75 1022.52 472.75C1021.42 475.75 1020.32 478.8 1019.22 481.9C1018.22 485 1017.47 488.25 1016.97 491.65C1016.37 495.55 1015.77 499.55 1015.17 503.65C1014.57 507.65 1014.02 511.65 1013.52 515.65C1013.02 519.65 1012.52 523.5 1012.02 527.2C1011.62 530.9 1011.32 534.35 1011.12 537.55C1011.12 540.45 1011.57 543.45 1012.47 546.55C1012.97 547.35 1013.42 547.95 1013.82 548.35C1014.22 548.65 1014.92 548.8 1015.92 548.8C1017.12 548.8 1018.42 548.65 1019.82 548.35C1021.32 548.05 1022.62 547.9 1023.72 547.9C1024.42 547.9 1024.92 548 1025.22 548.2C1025.52 548.4 1025.77 548.75 1025.97 549.25C1024.57 550.05 1023.07 550.65 1021.47 551.05C1019.87 551.45 1018.37 551.65 1016.97 551.65H1014.87C1014.47 551.65 1014.12 551.65 1013.82 551.65C1014.92 551.85 1016.32 551.95 1018.02 551.95C1020.62 551.95 1023.27 551.35 1025.97 550.15C1025.97 551.05 1026.27 551.8 1026.87 552.4C1027.17 552.3 1027.87 551.95 1028.97 551.35C1030.07 550.75 1031.02 550.45 1031.82 550.45C1034.22 550.45 1035.42 551.45 1035.42 553.45C1035.42 553.75 1035.32 554.2 1035.12 554.8C1034.92 555.4 1034.42 556.55 1033.62 558.25ZM993.873 538.15C993.873 537.45 993.873 536.55 993.873 535.45C993.973 534.35 994.073 533.25 994.173 532.15L994.473 528.7C994.573 527.5 994.673 526.45 994.773 525.55C994.673 527.05 994.573 528.95 994.473 531.25C994.473 533.45 994.473 535.1 994.473 536.2V542.2C994.473 543 994.473 543.85 994.473 544.75C994.573 545.65 994.673 546.5 994.773 547.3C994.373 545.7 994.123 544.15 994.023 542.65C993.923 541.05 993.873 539.55 993.873 538.15ZM1008.57 537.55C1008.57 535.25 1008.72 533 1009.02 530.8C1009.32 528.6 1009.57 526.35 1009.77 524.05C1009.27 526.35 1008.87 528.6 1008.57 530.8C1008.37 533 1008.17 535.25 1007.97 537.55V539.65C1007.97 540.35 1008.02 541.1 1008.12 541.9V540.85C1008.12 540.35 1008.17 539.8 1008.27 539.2C1008.37 538.6 1008.47 538.05 1008.57 537.55ZM994.773 525.4C994.773 525.2 994.773 525.05 994.773 524.95C994.873 524.85 994.923 524.75 994.923 524.65C994.923 525.05 994.873 525.3 994.773 525.4ZM1100.48 573.7C1096.68 575 1093.78 575.7 1091.78 575.8C1089.78 576 1088.03 576.15 1086.53 576.25C1080.93 576.25 1075.88 575.2 1071.38 573.1C1066.88 571 1063.03 568.15 1059.83 564.55C1056.63 560.95 1054.13 556.75 1052.33 551.95C1050.63 547.05 1049.78 541.85 1049.78 536.35C1049.78 533.15 1050.08 529.85 1050.68 526.45C1051.28 522.95 1052.18 519.55 1053.38 516.25C1054.58 512.85 1056.13 509.7 1058.03 506.8C1059.83 503.9 1061.98 501.3 1064.48 499C1061.88 501.1 1059.68 503.6 1057.88 506.5C1055.98 509.4 1054.38 512.55 1053.08 515.95C1051.78 519.25 1050.83 522.7 1050.23 526.3C1049.63 529.8 1049.33 533.2 1049.33 536.5C1049.33 540.7 1049.98 545.2 1051.28 550C1052.68 554.7 1054.88 559.1 1057.88 563.2C1060.88 567.2 1064.73 570.55 1069.43 573.25C1074.23 575.95 1080.03 577.3 1086.83 577.3C1090.03 577.3 1093.38 576.85 1096.88 575.95C1093.08 578.45 1088.83 579.7 1084.13 579.7C1080.33 579.7 1076.73 579.1 1073.33 577.9C1070.03 576.8 1066.93 575.2 1064.03 573.1C1061.23 571.1 1058.68 568.7 1056.38 565.9C1054.08 563.1 1052.13 560.1 1050.53 556.9L1051.88 555.7C1050.18 552.3 1048.93 548.9 1048.13 545.5C1047.43 542.1 1047.08 538.65 1047.08 535.15C1047.08 530.05 1047.78 525.15 1049.18 520.45C1050.68 515.75 1052.63 511.3 1055.03 507.1L1058.63 502.15C1059.23 501.05 1060.08 499.95 1061.18 498.85C1062.38 497.75 1063.68 496.7 1065.08 495.7C1066.48 494.6 1067.93 493.65 1069.43 492.85C1071.03 491.95 1072.53 491.15 1073.93 490.45C1077.53 488.65 1081.13 487.05 1084.73 485.65C1088.33 484.15 1092.53 483.05 1097.33 482.35L1096.73 481.9C1087.53 482.8 1079.73 485.05 1073.33 488.65C1066.93 492.15 1061.73 496.45 1057.73 501.55C1053.73 506.65 1050.83 512.25 1049.03 518.35C1047.23 524.35 1046.33 530.25 1046.33 536.05C1046.33 539.15 1046.58 542.3 1047.08 545.5C1047.68 548.6 1048.53 551.7 1049.63 554.8C1047.13 548.8 1045.88 542.45 1045.88 535.75C1045.88 529.15 1046.98 522.6 1049.18 516.1C1051.38 509.6 1054.83 503.6 1059.53 498.1C1065.53 492.6 1072.08 488.4 1079.18 485.5C1086.28 482.5 1093.13 481 1099.73 481C1101.83 481 1103.98 481.35 1106.18 482.05C1108.38 482.75 1110.38 483.85 1112.18 485.35C1113.98 486.75 1115.43 488.6 1116.53 490.9C1117.73 493.2 1118.33 496 1118.33 499.3C1118.33 502 1117.68 505.3 1116.38 509.2C1115.08 513.1 1113.13 516.9 1110.53 520.6C1108.03 524.2 1104.88 527.3 1101.08 529.9C1097.28 532.4 1092.88 533.65 1087.88 533.65H1082.93C1079.23 532.85 1075.83 531.95 1072.73 530.95C1069.73 529.85 1066.88 529 1064.18 528.4C1063.78 530 1063.53 531.55 1063.43 533.05C1063.43 534.45 1063.43 535.85 1063.43 537.25C1063.43 540.15 1063.73 543 1064.33 545.8C1065.03 548.5 1066.08 551 1067.48 553.3C1068.88 555.6 1070.63 557.55 1072.73 559.15C1074.93 560.65 1077.58 561.6 1080.68 562C1082.58 562.4 1084.23 562.65 1085.63 562.75C1087.03 562.75 1088.18 562.8 1089.08 562.9C1090.08 562.9 1090.78 563.05 1091.18 563.35C1091.68 563.55 1091.93 564 1091.93 564.7C1090.93 565 1089.88 565.2 1088.78 565.3C1087.78 565.4 1086.73 565.45 1085.63 565.45C1082.13 565.45 1078.98 564.9 1076.18 563.8C1073.38 562.6 1070.98 561.25 1068.98 559.75C1071.28 562.05 1074.03 563.7 1077.23 564.7C1080.43 565.6 1083.58 566.05 1086.68 566.05C1088.38 566.05 1090.13 565.9 1091.93 565.6C1091.73 566.2 1091.63 566.55 1091.63 566.65C1091.63 567.25 1091.88 567.65 1092.38 567.85C1092.78 567.75 1093.48 567.5 1094.48 567.1C1095.48 566.6 1096.48 566.15 1097.48 565.75C1098.58 565.25 1099.63 564.85 1100.63 564.55C1101.63 564.15 1102.33 563.95 1102.73 563.95C1103.23 563.95 1103.68 564.05 1104.08 564.25C1104.48 564.35 1104.68 564.9 1104.68 565.9C1104.68 566.9 1104.33 568.1 1103.63 569.5C1102.93 570.9 1101.88 572.3 1100.48 573.7ZM1079.78 514.3L1083.08 514.9C1084.18 515.1 1085.18 515.2 1086.08 515.2C1087.08 515.2 1088.23 514.9 1089.53 514.3C1090.93 513.6 1092.28 512.65 1093.58 511.45C1094.98 510.25 1096.18 508.75 1097.18 506.95C1098.28 505.15 1099.08 503.1 1099.58 500.8L1099.88 499.9C1098.48 499.9 1096.38 500.25 1093.58 500.95C1090.78 501.65 1087.88 502.6 1084.88 503.8C1081.88 504.9 1079.08 506.25 1076.48 507.85C1073.88 509.35 1072.08 511 1071.08 512.8C1072.58 513.1 1074.03 513.4 1075.43 513.7C1076.93 513.9 1078.38 514.1 1079.78 514.3ZM1072.88 525.4C1073.08 525.2 1073.18 524.9 1073.18 524.5C1073.28 524.1 1073.33 523.8 1073.33 523.6L1066.28 521.05L1065.53 523.15L1072.88 525.4ZM1068.68 559.45C1067.98 558.65 1067.28 557.85 1066.58 557.05C1065.98 556.35 1065.48 555.65 1065.08 554.95C1065.98 556.65 1067.18 558.15 1068.68 559.45Z" fill="#F1E3D2"/>
<path d="M988.624 615.768V615.024L988.936 614.832C988.888 614.56 988.856 614.296 988.84 614.04C988.824 613.768 988.816 613.496 988.816 613.224C988.816 612.92 988.816 612.624 988.816 612.336C988.832 612.032 988.84 611.72 988.84 611.4C988.84 611.064 988.824 610.728 988.792 610.392C988.76 610.056 988.704 609.72 988.624 609.384H988.48C988.496 610.232 988.52 611.064 988.552 611.88C988.6 612.696 988.624 613.528 988.624 614.376C988.544 613.16 988.448 611.944 988.336 610.728C988.24 609.512 988.192 608.28 988.192 607.032C988.192 606.664 988.208 606.296 988.24 605.928C988.288 605.544 988.336 605.168 988.384 604.8L986.8 605.208L986.824 605.136C986.792 605.088 986.744 605 986.68 604.872C986.632 604.744 986.608 604.664 986.608 604.632C986.608 604.552 986.688 604.472 986.848 604.392C987.024 604.296 987.216 604.216 987.424 604.152C987.648 604.088 987.856 604.032 988.048 603.984C988.256 603.936 988.4 603.904 988.48 603.888L988.408 603.6C988.28 603.632 988.016 603.672 987.616 603.72C987.232 603.752 986.84 603.768 986.44 603.768C986.12 603.768 985.84 603.744 985.6 603.696C985.36 603.648 985.24 603.544 985.24 603.384C985.24 603.208 985.4 603.032 985.72 602.856C986.04 602.68 986.448 602.52 986.944 602.376C987.456 602.216 988.016 602.072 988.624 601.944C989.232 601.816 989.816 601.704 990.376 601.608C990.936 601.512 991.44 601.44 991.888 601.392C992.336 601.344 992.648 601.32 992.824 601.32C993.64 601.32 994.416 601.424 995.152 601.632C995.904 601.824 996.56 602.136 997.12 602.568C997.68 602.984 998.12 603.52 998.44 604.176C998.776 604.832 998.944 605.608 998.944 606.504C998.944 606.872 998.888 607.256 998.776 607.656C998.664 608.04 998.488 608.416 998.248 608.784C998.024 609.136 997.728 609.456 997.36 609.744C997.008 610.032 996.584 610.24 996.088 610.368C996.92 610.48 997.632 610.672 998.224 610.944C998.832 611.216 999.32 611.544 999.688 611.928C1000.07 612.312 1000.35 612.744 1000.53 613.224C1000.7 613.704 1000.79 614.216 1000.79 614.76C1000.79 615.464 1000.65 616.064 1000.36 616.56C1000.09 617.056 999.72 617.472 999.256 617.808C998.792 618.144 998.264 618.4 997.672 618.576C997.08 618.768 996.464 618.912 995.824 619.008C995.184 619.104 994.552 619.16 993.928 619.176C993.304 619.208 992.736 619.224 992.224 619.224C992.096 619.224 991.848 619.216 991.48 619.2C991.128 619.184 990.76 619.152 990.376 619.104C989.992 619.056 989.648 618.984 989.344 618.888C989.056 618.808 988.912 618.696 988.912 618.552L988.936 618.432C989.608 618.544 990.28 618.632 990.952 618.696C991.624 618.776 992.296 618.816 992.968 618.816C993.48 618.816 993.984 618.784 994.48 618.72C994.976 618.656 995.472 618.576 995.968 618.48C995.072 618.64 994.136 618.72 993.16 618.72C992.472 618.72 991.784 618.688 991.096 618.624C990.424 618.56 989.752 618.472 989.08 618.36L989.2 618.072L989.152 617.904C989.104 617.92 989.032 617.928 988.936 617.928C988.776 617.928 988.592 617.896 988.384 617.832C988.176 617.768 987.976 617.688 987.784 617.592C987.608 617.496 987.456 617.384 987.328 617.256C987.2 617.128 987.136 617 987.136 616.872C987.136 616.792 987.2 616.728 987.328 616.68C987.456 616.632 987.6 616.6 987.76 616.584C987.936 616.552 988.104 616.528 988.264 616.512C988.424 616.496 988.536 616.48 988.6 616.464L988.624 615.768ZM991.024 604.392C991.056 604.488 991.088 604.696 991.12 605.016C991.168 605.32 991.208 605.68 991.24 606.096C991.288 606.512 991.328 606.96 991.36 607.44C991.392 607.92 991.416 608.384 991.432 608.832C991.464 609.264 991.488 609.656 991.504 610.008C991.52 610.344 991.528 610.584 991.528 610.728C991.528 611.576 991.496 612.424 991.432 613.272C991.368 614.104 991.336 614.944 991.336 615.792C991.336 616.112 991.44 616.312 991.648 616.392C991.872 616.472 992.112 616.512 992.368 616.512C993.136 616.512 993.896 616.488 994.648 616.44C995.4 616.376 996.136 616.208 996.856 615.936L996.928 616.224C997.248 616.064 997.528 615.872 997.768 615.648C998.024 615.408 998.152 615.096 998.152 614.712C998.152 614.28 998.016 613.912 997.744 613.608C997.472 613.288 997.136 613.032 996.736 612.84C996.352 612.648 995.936 612.504 995.488 612.408C995.056 612.312 994.672 612.264 994.336 612.264C994.304 612.264 994.24 612.288 994.144 612.336C994.048 612.368 993.976 612.392 993.928 612.408C994.152 612.424 994.432 612.464 994.768 612.528C995.104 612.592 995.448 612.68 995.8 612.792C996.152 612.888 996.488 613.016 996.808 613.176C997.128 613.336 997.392 613.512 997.6 613.704C997.296 613.464 996.88 613.264 996.352 613.104C995.808 612.944 995.248 612.816 994.672 612.72C994.112 612.624 993.592 612.552 993.112 612.504C992.632 612.44 992.304 612.392 992.128 612.36L992.008 609.696H992.056C992.472 609.696 992.904 609.624 993.352 609.48C993.816 609.32 994.24 609.104 994.624 608.832C995.008 608.544 995.328 608.208 995.584 607.824C995.84 607.424 995.968 606.992 995.968 606.528C995.968 606.08 995.872 605.712 995.68 605.424C995.488 605.136 995.232 604.912 994.912 604.752C994.608 604.576 994.264 604.464 993.88 604.416C993.496 604.352 993.12 604.32 992.752 604.32C992.464 604.32 992.176 604.336 991.888 604.368C991.6 604.384 991.312 604.392 991.024 604.392ZM991.36 617.016C991.632 617.048 991.888 617.072 992.128 617.088C992.384 617.104 992.648 617.112 992.92 617.112C993.176 617.112 993.488 617.104 993.856 617.088C994.24 617.056 994.64 617.008 995.056 616.944C995.488 616.88 995.912 616.792 996.328 616.68C996.76 616.568 997.144 616.424 997.48 616.248C997.816 616.072 998.088 615.856 998.296 615.6C998.52 615.344 998.632 615.04 998.632 614.688C998.632 614.496 998.6 614.312 998.536 614.136C998.472 613.96 998.384 613.792 998.272 613.632C998.352 613.76 998.416 613.904 998.464 614.064C998.528 614.208 998.56 614.36 998.56 614.52C998.56 615.064 998.376 615.496 998.008 615.816C997.64 616.136 997.192 616.384 996.664 616.56C996.152 616.72 995.616 616.824 995.056 616.872C994.496 616.92 994.016 616.944 993.616 616.944C993.248 616.944 992.872 616.936 992.488 616.92C992.12 616.888 991.752 616.856 991.384 616.824L991.36 617.016ZM989.2 616.632C989.232 616.072 989.248 615.504 989.248 614.928V613.224C989.248 612.904 989.24 612.592 989.224 612.288C989.208 612 989.184 611.712 989.152 611.424C989.152 611.84 989.152 612.256 989.152 612.672C989.168 613.104 989.176 613.536 989.176 613.968C989.176 614.416 989.168 614.856 989.152 615.288C989.136 615.72 989.096 616.152 989.032 616.584L989.2 616.632ZM993.736 609.768C994.024 609.592 994.296 609.408 994.552 609.216C994.824 609.024 995.072 608.8 995.296 608.544C995.216 608.544 995.176 608.512 995.176 608.448C994.68 608.992 994.064 609.416 993.328 609.72L993.736 609.768ZM994.984 612C995.464 612.08 995.976 612.232 996.52 612.456C996.984 612.648 997.4 612.872 997.768 613.128C997.416 612.84 997 612.592 996.52 612.384C995.992 612.128 995.488 612 995.008 612H994.984ZM989.512 604.92L989.68 604.536L989.296 604.584C989.296 604.616 989.296 604.648 989.296 604.68C989.312 604.696 989.32 604.72 989.32 604.752C989.32 604.784 989.312 604.816 989.296 604.848C989.296 604.864 989.296 604.888 989.296 604.92H989.512ZM1000.05 615.888C1000.21 615.472 1000.29 615.08 1000.29 614.712V614.448C1000.29 614.352 1000.28 614.264 1000.26 614.184C1000.26 614.696 1000.21 615.176 1000.1 615.624C1000 616.056 999.784 616.464 999.448 616.848C999.704 616.592 999.904 616.272 1000.05 615.888ZM991.048 611.952C990.984 612.256 990.944 612.56 990.928 612.864C990.912 613.12 990.904 613.384 990.904 613.656C990.92 613.4 990.944 613.144 990.976 612.888C991.008 612.584 991.032 612.272 991.048 611.952ZM999.4 616.896C999.096 617.216 998.76 617.472 998.392 617.664C998.024 617.856 997.64 618.032 997.24 618.192C997.656 618.048 998.048 617.88 998.416 617.688C998.784 617.496 999.112 617.232 999.4 616.896ZM998.656 611.52C998.8 611.648 998.936 611.776 999.064 611.904L999.4 612.24C999.304 612.096 999.2 611.968 999.088 611.856C998.976 611.728 998.832 611.616 998.656 611.52ZM990.904 616.368V615.648C990.888 615.776 990.872 615.896 990.856 616.008C990.856 616.12 990.856 616.24 990.856 616.368H990.904ZM997.648 613.752C997.904 613.96 998.032 614.208 998.032 614.496V614.544C997.984 614.256 997.856 613.992 997.648 613.752ZM997.576 615.528C997.432 615.672 997.256 615.784 997.048 615.864L997.576 615.528ZM990.808 616.944H990.904V616.776H990.808V616.944ZM997.864 615.12C997.848 615.12 997.84 615.104 997.84 615.072C997.84 615.04 997.848 615 997.864 614.952C997.896 614.888 997.928 614.84 997.96 614.808L997.864 615.12ZM998.032 614.688C998.032 614.704 998.016 614.728 997.984 614.76L998.032 614.664V614.688ZM1002.53 624.456C1002.66 624.584 1002.88 624.68 1003.18 624.744C1003.5 624.824 1003.8 624.864 1004.09 624.864C1004.62 624.864 1005.12 624.688 1005.6 624.336C1006.08 624 1006.54 623.536 1006.97 622.944C1007.42 622.352 1007.84 621.672 1008.24 620.904C1008.64 620.136 1009.03 619.328 1009.4 618.48H1009.37C1009.05 619.184 1008.71 619.904 1008.34 620.64C1007.97 621.392 1007.57 622.072 1007.14 622.68C1006.71 623.304 1006.24 623.808 1005.72 624.192C1005.23 624.592 1004.69 624.792 1004.12 624.792C1003.65 624.792 1003.2 624.656 1002.75 624.384C1002.99 624.304 1003.21 624.264 1003.42 624.264C1003.48 624.264 1003.6 624.28 1003.76 624.312C1004.01 624.312 1004.23 624.304 1004.4 624.288C1004.58 624.272 1004.75 624.232 1004.91 624.168C1005.07 624.12 1005.22 624.032 1005.36 623.904C1005.51 623.792 1005.67 623.64 1005.84 623.448L1006.13 623.52C1006.6 622.912 1007.03 622.256 1007.43 621.552C1007.84 620.848 1008.25 620.136 1008.65 619.416L1009.08 618.456L1008.87 618.408L1008.51 619.272C1008.14 619.992 1007.76 620.696 1007.36 621.384C1006.96 622.088 1006.5 622.728 1005.99 623.304C1006.55 622.616 1007.06 621.848 1007.52 621C1007.99 620.152 1008.41 619.272 1008.8 618.36L1008.65 618.12C1008.57 617.752 1008.45 617.392 1008.29 617.04C1008.18 616.768 1008.05 616.488 1007.91 616.2C1008.2 616.888 1008.4 617.552 1008.51 618.192C1008.35 618.144 1008.21 618.048 1008.1 617.904C1008 617.744 1007.91 617.56 1007.81 617.352C1007.73 617.144 1007.65 616.928 1007.57 616.704C1007.51 616.48 1007.42 616.256 1007.31 616.032L1007.43 615.816C1007.17 615.416 1006.89 614.92 1006.59 614.328C1006.3 613.736 1005.99 613.128 1005.65 612.504C1005.33 611.88 1005 611.272 1004.67 610.68C1004.33 610.088 1004 609.592 1003.68 609.192L1003.61 609.264L1006.61 614.664C1006 613.64 1005.36 612.6 1004.67 611.544C1003.98 610.488 1003.36 609.32 1002.82 608.04C1002.82 607.928 1002.8 607.784 1002.77 607.608C1002.74 607.416 1002.7 607.224 1002.65 607.032C1002.62 606.824 1002.58 606.624 1002.53 606.432C1002.48 606.224 1002.44 606.04 1002.39 605.88L1003.01 605.688C1003.09 605.688 1003.16 605.728 1003.23 605.808C1003.29 605.872 1003.35 606.016 1003.4 606.24C1003.48 606.24 1003.55 606.176 1003.61 606.048C1003.68 605.92 1003.74 605.776 1003.8 605.616C1003.88 605.456 1003.96 605.312 1004.04 605.184C1004.14 605.056 1004.26 604.992 1004.4 604.992C1004.61 604.992 1004.8 605.136 1004.96 605.424C1005.13 605.696 1005.29 606.032 1005.44 606.432C1005.6 606.832 1005.76 607.256 1005.94 607.704C1006.12 608.136 1006.32 608.512 1006.56 608.832C1006.82 609.264 1007.08 609.688 1007.33 610.104C1007.6 610.52 1007.85 610.96 1008.08 611.424C1008.32 612.064 1008.63 612.712 1009.01 613.368C1009.4 614.008 1009.7 614.68 1009.92 615.384C1010.31 614.104 1010.61 612.968 1010.84 611.976C1011.08 610.968 1011.26 609.968 1011.39 608.976C1011.56 608.464 1011.72 607.888 1011.84 607.248C1011.97 606.608 1012.04 605.984 1012.04 605.376L1012.56 605.4C1012.64 605.4 1012.72 605.44 1012.78 605.52C1012.84 605.584 1012.88 605.752 1012.88 606.024C1012.88 606.104 1012.87 606.192 1012.85 606.288C1012.85 606.368 1012.84 606.472 1012.83 606.6H1013.04C1013.19 606.072 1013.36 605.648 1013.55 605.328C1013.74 605.008 1013.92 604.848 1014.1 604.848C1014.23 604.848 1014.35 604.984 1014.46 605.256C1014.59 605.528 1014.65 605.984 1014.65 606.624C1014.65 607.696 1014.52 608.856 1014.27 610.104C1014.01 611.352 1013.75 612.584 1013.48 613.8C1013.03 615.432 1012.5 617 1011.89 618.504C1011.28 620.008 1010.52 621.536 1009.59 623.088C1009.3 623.52 1008.97 623.968 1008.6 624.432C1008.25 624.912 1007.84 625.344 1007.36 625.728C1006.89 626.112 1006.36 626.424 1005.75 626.664C1005.16 626.92 1004.48 627.048 1003.71 627.048C1003.15 627.048 1002.76 626.976 1002.56 626.832C1002.36 626.688 1002.27 626.576 1002.27 626.496C1002.27 626.448 1002.28 626.392 1002.32 626.328C1002.8 626.488 1003.31 626.568 1003.85 626.568C1004.24 626.568 1004.68 626.496 1005.17 626.352C1005.68 626.224 1006.14 626.024 1006.54 625.752C1006.17 625.944 1005.76 626.112 1005.29 626.256C1004.84 626.4 1004.44 626.472 1004.07 626.472C1003.49 626.472 1002.93 626.4 1002.39 626.256C1002.39 626.144 1002.34 626.04 1002.24 625.944C1002.16 625.848 1002.07 625.752 1001.96 625.656C1001.84 625.576 1001.74 625.488 1001.64 625.392C1001.56 625.296 1001.52 625.184 1001.52 625.056C1001.52 624.928 1001.56 624.832 1001.64 624.768C1001.72 624.704 1001.81 624.656 1001.91 624.624C1002.02 624.592 1002.13 624.56 1002.24 624.528C1002.36 624.512 1002.45 624.488 1002.53 624.456ZM1010.6 620.208C1010.13 621.04 1009.65 621.872 1009.16 622.704C1008.66 623.552 1008.04 624.352 1007.28 625.104C1008.05 624.384 1008.68 623.6 1009.18 622.752C1009.69 621.92 1010.16 621.072 1010.6 620.208ZM1008.8 614.184L1009.59 616.152L1009.73 616.008L1008.8 614.184ZM1010.07 615.816C1010.13 615.624 1010.19 615.432 1010.24 615.24L1010.38 614.664L1010.24 614.592L1009.97 615.528C1010 615.656 1010.04 615.752 1010.07 615.816ZM1007.36 614.952C1007.18 614.536 1006.97 614.128 1006.73 613.728C1006.51 613.312 1006.26 612.904 1005.99 612.504C1006.23 612.968 1006.48 613.432 1006.73 613.896C1006.99 614.328 1007.23 614.768 1007.45 615.216L1007.36 614.952ZM1007.93 612.216C1007.95 612.456 1007.98 612.656 1008.03 612.816C1008.09 612.976 1008.16 613.12 1008.22 613.248C1008.3 613.36 1008.37 613.472 1008.44 613.584C1008.52 613.68 1008.59 613.8 1008.65 613.944L1008.6 613.872L1007.93 612.216ZM1009.78 616.104L1009.61 616.296C1009.64 616.344 1009.68 616.392 1009.71 616.44C1009.74 616.472 1009.76 616.52 1009.78 616.584L1009.9 616.392L1009.78 616.104ZM1033.09 609.072L1033.04 609C1033.04 608.808 1033 608.6 1032.92 608.376C1032.86 608.152 1032.78 607.928 1032.68 607.704C1032.59 607.48 1032.47 607.264 1032.35 607.056C1032.23 606.832 1032.13 606.624 1032.03 606.432L1031.87 606.336C1032.07 606.832 1032.29 607.28 1032.51 607.68C1032.74 608.08 1032.85 608.504 1032.85 608.952L1032.97 609.096L1032.75 609V608.856C1032.47 608.296 1032.19 607.688 1031.91 607.032C1031.66 606.36 1031.39 605.744 1031.12 605.184C1030.96 606.256 1030.76 607.328 1030.52 608.4C1030.28 609.472 1029.98 610.512 1029.61 611.52C1029.29 612.384 1028.91 613.216 1028.46 614.016C1028.01 614.8 1027.63 615.632 1027.33 616.512L1027.14 616.368L1026.87 616.416C1026.73 616.384 1026.66 616.288 1026.66 616.128C1026.66 616 1026.68 615.848 1026.73 615.672C1026.78 615.48 1026.83 615.288 1026.9 615.096C1026.98 614.904 1027.06 614.72 1027.14 614.544C1027.22 614.352 1027.28 614.2 1027.33 614.088L1027.11 614.016C1027.07 614.112 1026.95 614.328 1026.75 614.664C1026.58 615 1026.38 615.344 1026.15 615.696C1025.95 616.048 1025.74 616.368 1025.53 616.656C1025.32 616.944 1025.16 617.088 1025.05 617.088C1024.97 617.04 1024.91 616.968 1024.88 616.872C1024.85 616.76 1024.83 616.664 1024.83 616.584C1024.83 616.12 1024.94 615.52 1025.15 614.784C1025.37 614.048 1025.63 613.288 1025.91 612.504C1026.2 611.704 1026.49 610.928 1026.78 610.176C1027.08 609.424 1027.31 608.792 1027.47 608.28C1027.62 607.832 1027.75 607.352 1027.86 606.84C1027.99 606.312 1028.09 605.784 1028.17 605.256C1028.27 604.712 1028.35 604.176 1028.41 603.648C1028.47 603.12 1028.53 602.616 1028.58 602.136C1028.85 601.928 1029.22 601.752 1029.68 601.608C1030.16 601.464 1030.6 601.312 1031 601.152C1031.87 601.856 1032.61 602.664 1033.23 603.576C1033.86 604.488 1034.4 605.52 1034.87 606.672C1035.15 606.24 1035.42 605.76 1035.66 605.232C1035.91 604.704 1036.15 604.16 1036.35 603.6C1036.56 603.024 1036.76 602.456 1036.95 601.896C1037.15 601.336 1037.34 600.816 1037.53 600.336C1037.93 600.208 1038.35 600.112 1038.78 600.048C1039.23 599.984 1039.67 599.912 1040.1 599.832C1040.53 600.728 1040.94 601.584 1041.32 602.4C1041.71 603.216 1042.06 604.04 1042.38 604.872C1042.71 605.688 1043.01 606.528 1043.27 607.392C1043.54 608.256 1043.78 609.184 1043.99 610.176C1044.08 610.688 1044.2 611.208 1044.35 611.736C1044.49 612.248 1044.62 612.768 1044.73 613.296C1044.86 613.824 1044.96 614.352 1045.04 614.88C1045.14 615.408 1045.19 615.936 1045.19 616.464C1045.19 616.512 1045.16 616.576 1045.11 616.656C1045.08 616.736 1045 616.784 1044.87 616.8C1044.62 615.296 1044.34 613.808 1044.03 612.336C1043.73 610.896 1043.35 609.464 1042.91 608.04C1043.31 609.464 1043.65 610.88 1043.94 612.288C1044.24 613.744 1044.51 615.224 1044.73 616.728L1044.39 616.92C1044.43 617.112 1044.47 617.312 1044.51 617.52C1044.56 617.728 1044.59 617.928 1044.59 618.12C1044.59 618.168 1044.58 618.264 1044.56 618.408C1044.56 618.568 1044.55 618.728 1044.51 618.888C1044.5 619.048 1044.46 619.184 1044.39 619.296C1044.35 619.424 1044.27 619.488 1044.18 619.488C1044.08 619.488 1043.98 619.424 1043.87 619.296C1043.77 619.184 1043.67 619.04 1043.58 618.864C1043.5 618.704 1043.42 618.544 1043.34 618.384C1043.27 618.24 1043.23 618.128 1043.19 618.048C1043.1 616.992 1042.93 615.816 1042.69 614.52C1042.47 613.208 1042.19 611.888 1041.87 610.56C1041.55 609.216 1041.19 607.92 1040.77 606.672C1040.37 605.408 1039.95 604.296 1039.5 603.336L1039.47 603.456C1039.99 604.544 1040.43 605.664 1040.79 606.816C1041.16 607.952 1041.48 609.112 1041.75 610.296C1042.03 611.464 1042.26 612.648 1042.45 613.848C1042.64 615.032 1042.81 616.208 1042.95 617.376C1042.62 616.64 1042.35 615.896 1042.14 615.144C1041.95 614.376 1041.77 613.616 1041.61 612.864C1041.47 612.096 1041.31 611.328 1041.15 610.56C1041.01 609.792 1040.83 609.016 1040.6 608.232L1040.77 607.752C1040.55 607.096 1040.31 606.448 1040.07 605.808C1039.85 605.168 1039.59 604.544 1039.28 603.936L1039.19 604.176C1039.01 604.656 1038.79 605.216 1038.51 605.856C1038.24 606.496 1037.92 607.12 1037.55 607.728C1037.19 608.336 1036.77 608.88 1036.31 609.36C1035.86 609.84 1035.36 610.16 1034.82 610.32C1034.48 610.112 1034.14 609.92 1033.79 609.744C1033.45 609.552 1033.11 609.36 1032.75 609.168V609.024L1033.71 609.552C1034.03 609.728 1034.35 609.912 1034.67 610.104L1034.87 610.056C1035.55 609.656 1036.11 609.256 1036.52 608.856C1036.95 608.456 1037.32 608.016 1037.63 607.536C1037.93 607.056 1038.19 606.52 1038.42 605.928C1038.66 605.32 1038.93 604.632 1039.23 603.864L1039.14 603.648L1039.04 603.864L1038.63 604.8C1038.47 605.184 1038.27 605.6 1038.03 606.048C1037.81 606.48 1037.55 606.928 1037.27 607.392C1036.99 607.84 1036.71 608.256 1036.43 608.64C1036.14 609.008 1035.84 609.312 1035.54 609.552C1035.23 609.776 1034.95 609.888 1034.67 609.888L1033.09 609.072ZM1041.35 603.264C1041.31 603.168 1041.26 603.04 1041.18 602.88C1041.1 602.704 1041.01 602.528 1040.91 602.352C1040.83 602.176 1040.75 602.008 1040.67 601.848C1040.59 601.672 1040.53 601.544 1040.48 601.464L1040.75 602.208L1041.27 603.312L1041.35 603.264ZM1038.83 603.36L1038.01 605.52C1038.17 605.184 1038.31 604.848 1038.44 604.512C1038.59 604.176 1038.72 603.84 1038.85 603.504L1038.83 603.36ZM1038.2 601.152L1038.51 601.944L1038.63 601.92L1038.35 601.152H1038.2ZM1028.82 602.448L1028.77 603.168C1028.77 603.328 1028.75 603.544 1028.72 603.816L1028.99 602.4L1028.82 602.448ZM1037.03 602.952L1037.65 601.464H1037.55L1037.03 602.952ZM1040.41 601.32L1039.86 600.408L1039.91 600.672L1040.41 601.32ZM1039.38 603.072L1039.33 603.168L1039.43 603.36L1039.45 603.24L1039.38 603.072ZM1055.42 611.712C1054.99 611.712 1054.66 611.704 1054.44 611.688C1054.23 611.672 1054.04 611.664 1053.86 611.664C1053.38 611.664 1052.96 611.688 1052.59 611.736C1052.22 611.784 1051.91 611.88 1051.65 612.024C1051.4 612.168 1051.2 612.376 1051.08 612.648C1050.95 612.92 1050.88 613.28 1050.88 613.728C1050.88 614.384 1050.96 614.872 1051.1 615.192C1051.26 615.496 1051.48 615.72 1051.75 615.864C1052.04 615.992 1052.38 616.072 1052.78 616.104C1053.18 616.136 1053.63 616.208 1054.12 616.32C1054.41 616.352 1054.7 616.376 1054.99 616.392C1055.28 616.392 1055.56 616.392 1055.85 616.392H1057.58C1056.78 616.344 1055.98 616.32 1055.18 616.32C1054.4 616.304 1053.68 616.232 1053.04 616.104C1052.42 615.976 1051.91 615.752 1051.51 615.432C1051.12 615.112 1050.93 614.624 1050.93 613.968C1050.93 613.44 1051 613.04 1051.12 612.768C1051.27 612.48 1051.45 612.272 1051.68 612.144C1051.92 612 1052.2 611.92 1052.52 611.904C1052.84 611.872 1053.18 611.856 1053.55 611.856C1054 611.856 1054.45 611.88 1054.92 611.928C1054.55 612.04 1054.17 612.128 1053.79 612.192C1053.42 612.24 1053.08 612.296 1052.76 612.36C1052.44 612.408 1052.16 612.48 1051.92 612.576C1051.69 612.656 1051.54 612.776 1051.46 612.936V614.016L1051.27 614.112C1051.33 614.512 1051.39 614.816 1051.44 615.024C1051.5 615.216 1051.66 615.368 1051.92 615.48C1052.17 615.576 1052.58 615.656 1053.14 615.72C1053.72 615.784 1054.55 615.888 1055.64 616.032H1057.36C1057.67 616.032 1057.84 616.024 1057.89 616.008C1057.96 615.976 1058 615.96 1058.01 615.96L1057.8 614.664C1057.76 614.344 1057.72 614.056 1057.68 613.8C1057.63 613.544 1057.56 613.272 1057.48 612.984C1057.47 613.032 1057.42 613.056 1057.34 613.056C1057.42 613.328 1057.48 613.616 1057.53 613.92C1057.6 614.224 1057.64 614.512 1057.68 614.784C1057.72 615.056 1057.76 615.288 1057.77 615.48C1057.8 615.672 1057.84 615.784 1057.87 615.816L1057.72 615.864C1057.69 615.88 1057.64 615.888 1057.58 615.888H1057.44C1057.32 615.888 1057.2 615.88 1057.05 615.864C1056.91 615.832 1056.72 615.816 1056.5 615.816H1055.71C1055.08 615.816 1054.51 615.784 1053.98 615.72C1053.48 615.656 1053.05 615.576 1052.68 615.48C1053.05 615.56 1053.5 615.624 1054.03 615.672C1054.59 615.736 1055.11 615.768 1055.59 615.768C1055.8 615.768 1056.01 615.768 1056.24 615.768C1056.48 615.752 1056.73 615.744 1057 615.744H1057.8C1057.75 615.696 1057.69 615.672 1057.63 615.672H1057.58C1057.52 614.568 1057.37 613.512 1057.15 612.504C1056.92 611.496 1056.56 610.616 1056.07 609.864C1055.57 609.096 1054.92 608.488 1054.12 608.04C1053.32 607.576 1052.32 607.344 1051.12 607.344C1050.79 607.344 1050.45 607.368 1050.12 607.416C1049.78 607.464 1049.44 607.528 1049.08 607.608C1049.12 607.576 1049.13 607.544 1049.13 607.512C1049.13 607.432 1049.1 607.36 1049.04 607.296C1048.97 607.216 1048.94 607.136 1048.94 607.056C1048.94 606.96 1049.04 606.872 1049.23 606.792C1049.44 606.696 1049.87 606.608 1050.52 606.528C1050.49 606.496 1050.47 606.448 1050.45 606.384C1050.45 606.32 1050.45 606.272 1050.45 606.24C1049.59 606.24 1048.92 606.224 1048.44 606.192C1047.96 606.144 1047.72 606.024 1047.72 605.832C1047.72 605.752 1047.81 605.64 1048 605.496C1048.21 605.352 1048.5 605.216 1048.87 605.088C1049.24 604.944 1049.68 604.824 1050.19 604.728C1050.72 604.616 1051.3 604.56 1051.94 604.56C1053.17 604.56 1054.23 604.752 1055.11 605.136C1055.99 605.504 1056.72 606 1057.32 606.624C1057.92 607.232 1058.41 607.928 1058.78 608.712C1059.16 609.496 1059.47 610.288 1059.69 611.088C1059.93 611.872 1060.11 612.64 1060.22 613.392C1060.33 614.128 1060.44 614.768 1060.53 615.312C1060.53 615.408 1060.53 615.504 1060.53 615.6C1060.55 615.696 1060.56 615.808 1060.56 615.936C1060.56 616.4 1060.47 616.808 1060.29 617.16C1060.13 617.496 1059.9 617.776 1059.6 618C1059.31 618.24 1058.96 618.416 1058.56 618.528C1058.18 618.656 1057.76 618.72 1057.32 618.72C1056.96 618.72 1056.51 618.712 1055.95 618.696C1055.39 618.68 1054.85 618.632 1054.34 618.552C1054 618.472 1053.64 618.408 1053.24 618.36C1052.84 618.328 1052.43 618.264 1052.01 618.168C1051.6 618.072 1051.19 617.936 1050.79 617.76C1050.4 617.584 1050.05 617.32 1049.73 616.968C1049.43 616.6 1049.18 616.128 1048.99 615.552C1048.81 614.976 1048.72 614.248 1048.72 613.368C1048.72 612.536 1048.92 611.872 1049.3 611.376C1049.68 610.864 1050.14 610.472 1050.67 610.2C1051.21 609.912 1051.76 609.728 1052.32 609.648C1052.88 609.552 1053.34 609.504 1053.69 609.504C1054.14 609.504 1054.44 609.536 1054.58 609.6C1054.72 609.664 1054.8 609.728 1054.8 609.792C1054.8 609.84 1054.79 609.88 1054.77 609.912C1054.37 609.912 1053.86 609.928 1053.24 609.96C1052.61 609.992 1052 610.096 1051.41 610.272C1050.84 610.448 1050.34 610.72 1049.92 611.088C1049.51 611.44 1049.3 611.944 1049.3 612.6C1049.44 612.008 1049.68 611.544 1050.02 611.208C1050.37 610.856 1050.77 610.6 1051.22 610.44C1051.67 610.264 1052.12 610.16 1052.59 610.128C1053.07 610.08 1053.5 610.056 1053.88 610.056H1054.7C1054.64 610.12 1054.6 610.184 1054.6 610.248C1054.6 610.312 1054.64 610.368 1054.7 610.416H1055.64C1055.89 610.464 1056.08 610.552 1056.19 610.68C1056.3 610.792 1056.36 610.896 1056.36 610.992C1056.36 611.136 1056.28 611.264 1056.14 611.376C1056 611.488 1055.76 611.6 1055.42 611.712ZM1051.39 617.52C1051.84 617.696 1052.29 617.832 1052.76 617.928C1053.24 618.024 1053.71 618.088 1054.17 618.12C1054.64 618.168 1055.07 618.192 1055.47 618.192C1055.15 618.16 1054.83 618.104 1054.51 618.024C1054.17 617.944 1053.88 617.872 1053.62 617.808C1053.35 617.744 1053.08 617.704 1052.8 617.688C1052.55 617.656 1052.28 617.616 1051.99 617.568C1051.72 617.52 1051.44 617.448 1051.15 617.352C1050.86 617.24 1050.57 617.08 1050.28 616.872C1050.59 617.144 1050.96 617.36 1051.39 617.52ZM1051.63 615C1051.61 614.984 1051.66 615.032 1051.77 615.144C1051.87 615.24 1052 615.312 1052.16 615.36C1052.08 615.328 1051.96 615.288 1051.8 615.24C1051.62 615.176 1051.53 615.08 1051.53 614.952L1051.63 615ZM1052.23 615.36C1052.21 615.36 1052.19 615.36 1052.16 615.36C1052.17 615.36 1052.2 615.36 1052.23 615.36ZM1063.93 616.752C1064 616.304 1064.05 615.784 1064.1 615.192C1064.17 614.584 1064.22 613.976 1064.27 613.368C1064.32 612.76 1064.37 612.168 1064.41 611.592C1064.46 611 1064.51 610.488 1064.56 610.056C1064.48 610.488 1064.41 610.984 1064.34 611.544C1064.28 612.104 1064.21 612.68 1064.15 613.272C1064.09 613.864 1064.02 614.456 1063.96 615.048C1063.89 615.624 1063.84 616.144 1063.79 616.608C1063.55 616.448 1063.43 616.232 1063.43 615.96C1063.43 615.64 1063.44 615.376 1063.45 615.168C1063.47 614.944 1063.49 614.688 1063.53 614.4L1063.79 614.16C1063.77 614.08 1063.77 614.008 1063.77 613.944V613.704C1063.77 613.336 1063.81 612.92 1063.89 612.456C1063.97 611.976 1064.05 611.496 1064.15 611.016C1064.26 610.52 1064.36 610.048 1064.44 609.6C1064.52 609.136 1064.56 608.736 1064.56 608.4L1064.27 608.328C1064.24 608.712 1064.19 609.152 1064.13 609.648C1064.06 610.128 1063.99 610.632 1063.91 611.16C1063.85 611.672 1063.78 612.184 1063.72 612.696C1063.69 612.968 1063.65 613.224 1063.62 613.464C1063.65 613.016 1063.69 612.536 1063.74 612.024C1063.82 611.288 1063.9 610.56 1063.98 609.84C1064.08 609.104 1064.17 608.384 1064.25 607.68C1064.33 606.976 1064.41 606.328 1064.49 605.736C1064.49 605.496 1064.54 605.24 1064.65 604.968C1064.78 604.68 1064.87 604.384 1064.92 604.08C1065.01 604.112 1065.09 604.128 1065.16 604.128H1065.33C1065.49 604.128 1065.59 604.168 1065.64 604.248C1065.69 604.312 1065.71 604.408 1065.71 604.536V604.656L1065.93 604.728C1066.05 604.488 1066.21 604.296 1066.38 604.152C1066.56 604.008 1066.73 603.936 1066.91 603.936C1067.29 603.936 1067.49 604.344 1067.49 605.16C1067.49 605.592 1067.44 606.056 1067.34 606.552C1067.26 607.032 1067.22 607.504 1067.22 607.968V608.28C1067.22 608.792 1067.17 609.352 1067.05 609.96C1066.94 610.552 1066.81 611.16 1066.67 611.784C1066.54 612.392 1066.42 612.984 1066.31 613.56C1066.2 614.136 1066.14 614.664 1066.14 615.144C1066.14 615.256 1066.15 615.376 1066.17 615.504C1066.18 615.632 1066.19 615.752 1066.19 615.864C1066.19 616.104 1066.14 616.256 1066.05 616.32C1065.97 616.368 1065.86 616.392 1065.73 616.392C1065.73 616.184 1065.73 615.928 1065.71 615.624C1065.69 615.32 1065.69 615.048 1065.69 614.808C1065.65 614.984 1065.64 615.224 1065.64 615.528C1065.64 615.832 1065.62 616.12 1065.59 616.392H1065.23V616.68C1065.09 616.936 1064.89 617.064 1064.65 617.064C1064.54 617.064 1064.41 617.032 1064.27 616.968C1064.13 616.904 1064.01 616.832 1063.93 616.752ZM1068.88 598.32C1068.61 598.48 1068.36 598.688 1068.13 598.944C1067.91 599.2 1067.68 599.448 1067.44 599.688C1067.58 599.592 1067.71 599.488 1067.82 599.376C1067.93 599.264 1068.05 599.152 1068.16 599.04C1068.29 598.928 1068.41 598.816 1068.54 598.704C1068.69 598.592 1068.85 598.488 1069.02 598.392C1069.07 598.456 1069.11 598.512 1069.14 598.56C1069.19 598.608 1069.21 598.656 1069.21 598.704L1068.66 599.256C1068.66 599.224 1068.63 599.192 1068.57 599.16C1068.52 599.128 1068.48 599.112 1068.45 599.112C1068.4 599.272 1068.32 599.4 1068.21 599.496C1068.09 599.592 1067.98 599.68 1067.87 599.76C1067.76 599.84 1067.65 599.928 1067.53 600.024C1067.42 600.12 1067.34 600.248 1067.29 600.408V600.456C1067.29 600.472 1067.32 600.48 1067.37 600.48L1068.57 599.352L1068.11 599.808C1067.89 600.032 1067.65 600.264 1067.39 600.504C1067.15 600.728 1066.92 600.928 1066.69 601.104C1066.49 601.28 1066.36 601.368 1066.31 601.368L1066.29 601.344C1066.17 601.312 1066.05 601.296 1065.93 601.296C1065.81 601.296 1065.69 601.288 1065.57 601.272C1065.57 601.144 1065.54 601.008 1065.49 600.864C1065.46 600.72 1065.45 600.608 1065.45 600.528C1065.45 600.448 1065.49 600.408 1065.57 600.408C1065.57 600.36 1065.53 600.288 1065.47 600.192C1065.42 600.08 1065.37 599.96 1065.3 599.832C1065.24 599.688 1065.17 599.544 1065.11 599.4C1065.06 599.24 1065.04 599.08 1065.04 598.92C1065.04 598.76 1065.1 598.608 1065.23 598.464C1065.37 598.304 1065.53 598.168 1065.71 598.056C1065.9 597.944 1066.09 597.848 1066.26 597.768C1066.44 597.688 1066.57 597.632 1066.65 597.6C1066.71 597.6 1066.73 597.568 1066.72 597.504C1066.7 597.424 1066.73 597.384 1066.79 597.384L1067.22 597.528C1067.19 597.608 1067.09 597.744 1066.91 597.936C1066.75 598.112 1066.63 598.24 1066.55 598.32C1066.66 598.24 1066.79 598.12 1066.93 597.96C1067.09 597.8 1067.21 597.68 1067.29 597.6C1067.37 597.632 1067.45 597.664 1067.51 597.696C1067.57 597.728 1067.62 597.744 1067.65 597.744L1067.73 597.672C1067.84 597.672 1067.96 597.696 1068.09 597.744C1068.23 597.792 1068.36 597.848 1068.47 597.912C1068.58 597.976 1068.68 598.048 1068.76 598.128C1068.84 598.208 1068.88 598.272 1068.88 598.32ZM1063.57 614.04C1063.59 613.864 1063.61 613.688 1063.62 613.512C1063.61 613.704 1063.59 613.88 1063.57 614.04ZM1089.18 610.2C1088.55 609.976 1087.9 609.832 1087.23 609.768C1086.59 609.688 1085.94 609.616 1085.26 609.552C1085.87 609.648 1086.5 609.736 1087.14 609.816C1087.81 609.896 1088.44 610.072 1089.03 610.344C1088.97 610.408 1088.9 610.464 1088.84 610.512C1088.78 610.56 1088.71 610.584 1088.65 610.584C1088.42 610.584 1088.21 610.56 1088 610.512C1087.79 610.448 1087.57 610.416 1087.33 610.416V610.128C1087.25 610.144 1087.14 610.152 1086.99 610.152C1086.59 610.152 1086.2 610.096 1085.82 609.984C1085.43 609.872 1085.04 609.816 1084.64 609.816C1084.43 609.816 1084.23 609.84 1084.04 609.888V609.984C1084.55 610.016 1085.07 610.072 1085.6 610.152C1086.14 610.216 1086.7 610.304 1087.26 610.416C1086.74 610.336 1086.19 610.264 1085.6 610.2C1085.02 610.136 1084.48 610.104 1083.97 610.104C1083.76 610.104 1083.56 610.112 1083.37 610.128C1083.19 610.128 1083.02 610.136 1082.84 610.152C1082.84 610.488 1082.85 610.88 1082.86 611.328C1082.88 611.776 1082.91 612.216 1082.96 612.648C1083.01 613.064 1083.06 613.432 1083.13 613.752C1083.19 614.072 1083.27 614.28 1083.37 614.376L1083.58 614.808C1083.78 615.4 1084.42 615.696 1085.5 615.696C1085.74 615.696 1086.03 615.664 1086.37 615.6C1086.7 615.536 1087.04 615.464 1087.38 615.384C1087.73 615.288 1088.06 615.208 1088.36 615.144C1088.68 615.08 1088.95 615.048 1089.18 615.048C1089.4 615.048 1089.53 615.08 1089.56 615.144C1089.59 615.208 1089.61 615.296 1089.61 615.408C1088.94 615.488 1088.29 615.608 1087.66 615.768C1087.12 615.912 1086.59 616.024 1086.08 616.104C1086.59 616.024 1087.11 615.928 1087.64 615.816C1088.26 615.672 1088.9 615.56 1089.54 615.48C1089.5 615.576 1089.49 615.64 1089.49 615.672C1089.49 615.768 1089.53 615.848 1089.61 615.912L1089.94 615.864C1090.04 615.848 1090.14 615.84 1090.23 615.84C1090.33 615.824 1090.42 615.8 1090.5 615.768C1090.78 615.848 1090.98 615.936 1091.1 616.032C1091.22 616.128 1091.29 616.232 1091.29 616.344C1091.29 616.552 1091.18 616.696 1090.98 616.776C1090.78 616.856 1090.6 616.984 1090.42 617.16H1090.33C1089.86 617.16 1089.42 617.2 1088.98 617.28C1088.55 617.344 1088.12 617.416 1087.69 617.496C1087.27 617.576 1086.84 617.656 1086.39 617.736C1085.96 617.8 1085.51 617.832 1085.05 617.832H1084.71H1084.57C1084.87 617.864 1085.2 617.88 1085.55 617.88C1086 617.88 1086.42 617.856 1086.8 617.808C1087.2 617.76 1087.58 617.704 1087.95 617.64C1088.32 617.576 1088.67 617.52 1089.01 617.472C1089.36 617.424 1089.71 617.4 1090.06 617.4C1089.81 617.528 1089.5 617.656 1089.13 617.784C1088.76 617.896 1088.35 617.992 1087.9 618.072C1087.46 618.168 1086.99 618.24 1086.51 618.288C1086.03 618.352 1085.56 618.384 1085.1 618.384C1084.78 618.384 1084.46 618.368 1084.16 618.336C1083.86 618.304 1083.53 618.2 1083.18 618.024L1083.15 617.76C1082.93 617.68 1082.69 617.536 1082.43 617.328C1082.19 617.104 1081.97 616.872 1081.76 616.632C1081.55 616.392 1081.38 616.168 1081.23 615.96C1081.09 615.752 1081.02 615.616 1081.02 615.552L1080.94 615.336C1080.8 615.032 1080.68 614.696 1080.58 614.328C1080.5 613.96 1080.44 613.592 1080.39 613.224C1080.34 612.84 1080.3 612.464 1080.27 612.096C1080.24 611.728 1080.22 611.384 1080.2 611.064C1080.17 610.536 1080.14 610.008 1080.13 609.48C1080.11 608.936 1080.1 608.392 1080.1 607.848C1080.1 607.304 1080.1 606.76 1080.1 606.216C1080.12 605.656 1080.13 605.096 1080.13 604.536H1080.06C1079.98 605.144 1079.93 605.728 1079.91 606.288C1079.91 606.848 1079.91 607.408 1079.91 607.968V608.904C1079.91 610.024 1079.97 611.192 1080.08 612.408C1080.21 613.624 1080.52 614.808 1081.02 615.96C1080.65 615.336 1080.42 614.72 1080.32 614.112C1080.22 613.488 1080.14 612.912 1080.06 612.384C1079.96 611.696 1079.89 611.032 1079.84 610.392C1079.81 609.752 1079.79 609.096 1079.79 608.424V607.92C1079.79 606.992 1079.82 606.048 1079.86 605.088C1079.91 604.128 1080.06 603.112 1080.3 602.04C1080.2 602.04 1080.15 601.992 1080.15 601.896C1080.15 601.8 1080.2 601.664 1080.3 601.488C1080.41 601.312 1080.54 601.144 1080.7 600.984C1080.86 600.808 1081.04 600.664 1081.23 600.552C1081.44 600.424 1081.64 600.36 1081.83 600.36H1087.54C1088.14 600.472 1088.71 600.568 1089.27 600.648C1089.85 600.712 1090.45 600.76 1091.07 600.792L1091.05 601.344C1091.05 601.44 1091 601.52 1090.9 601.584C1090.82 601.632 1090.63 601.656 1090.33 601.656C1090.23 601.656 1090.11 601.656 1089.97 601.656C1089.84 601.64 1089.7 601.624 1089.54 601.608V601.824C1090.19 601.968 1090.7 602.144 1091.07 602.352C1091.46 602.56 1091.65 602.76 1091.65 602.952C1091.65 603.176 1091.43 603.312 1091 603.36C1090.58 603.408 1090.02 603.432 1089.32 603.432C1088.42 603.432 1087.46 603.432 1086.44 603.432C1085.43 603.416 1084.46 603.368 1083.51 603.288H1083.1C1083.02 603.896 1082.97 604.52 1082.94 605.16C1082.9 605.8 1082.88 606.456 1082.86 607.128C1083.12 607.128 1083.37 607.12 1083.61 607.104C1083.86 607.072 1084.13 607.056 1084.4 607.056C1084.62 607.056 1084.88 607.08 1085.17 607.128C1085.47 607.16 1085.78 607.208 1086.1 607.272C1086.44 607.336 1086.77 607.416 1087.09 607.512C1087.42 607.592 1087.73 607.68 1088 607.776C1088.05 607.792 1088.1 607.8 1088.17 607.8H1088.58C1088.78 607.8 1088.92 607.832 1088.98 607.896C1089.06 607.96 1089.1 608.088 1089.1 608.28C1088.83 608.28 1088.58 608.264 1088.34 608.232C1088.1 608.2 1087.86 608.168 1087.64 608.136C1087.86 608.216 1088.1 608.28 1088.34 608.328C1088.58 608.36 1088.83 608.392 1089.1 608.424C1089.07 608.504 1089.05 608.576 1089.03 608.64C1089.03 608.704 1089.03 608.76 1089.03 608.808C1089.19 608.84 1089.3 608.92 1089.34 609.048C1089.41 609.16 1089.44 609.288 1089.44 609.432C1089.44 609.64 1089.39 609.808 1089.3 609.936C1089.22 610.048 1089.18 610.136 1089.18 610.2ZM1080.73 612.912C1080.79 613.296 1080.86 613.712 1080.94 614.16C1081.04 614.592 1081.18 615.024 1081.35 615.456C1081.54 615.872 1081.8 616.264 1082.12 616.632C1082.38 616.936 1082.71 617.192 1083.13 617.4C1082.65 617.144 1082.26 616.792 1081.95 616.344C1081.6 615.8 1081.32 615.192 1081.11 614.52C1080.92 613.848 1080.78 613.136 1080.68 612.384C1080.6 611.632 1080.54 610.912 1080.49 610.224C1080.5 610.656 1080.53 611.096 1080.56 611.544C1080.59 611.992 1080.65 612.448 1080.73 612.912ZM1086.61 608.016C1086.88 608.064 1087.17 608.104 1087.47 608.136C1087.18 608.056 1086.91 608 1086.66 607.968C1086.4 607.92 1086.14 607.864 1085.89 607.8C1086.1 607.896 1086.34 607.968 1086.61 608.016ZM1082.67 617.856C1082.46 617.76 1082.28 617.648 1082.12 617.52C1082.01 617.424 1081.9 617.328 1081.81 617.232C1081.9 617.328 1082.02 617.416 1082.14 617.496C1082.32 617.624 1082.5 617.744 1082.67 617.856ZM1083.39 617.52L1083.18 617.424L1083.39 617.52ZM1093.79 617.16C1094.19 616.92 1094.56 616.608 1094.89 616.224C1095.23 615.84 1095.58 615.464 1095.95 615.096C1095.72 615.24 1095.52 615.4 1095.35 615.576L1094.84 616.08C1094.67 616.256 1094.48 616.432 1094.27 616.608C1094.08 616.768 1093.84 616.912 1093.57 617.04C1093.49 616.96 1093.43 616.896 1093.38 616.848C1093.35 616.8 1093.33 616.736 1093.33 616.656C1093.33 616.576 1093.34 616.528 1093.36 616.512L1094.12 615.744C1094.12 615.808 1094.16 615.864 1094.24 615.912C1094.32 615.944 1094.39 615.96 1094.44 615.96C1094.52 615.72 1094.64 615.528 1094.8 615.384C1094.96 615.24 1095.12 615.112 1095.3 615C1095.48 614.872 1095.64 614.736 1095.8 614.592C1095.96 614.448 1096.08 614.256 1096.16 614.016C1096.15 614 1096.14 613.984 1096.14 613.968C1096.11 613.936 1096.08 613.92 1096.07 613.92L1094.27 615.6C1094.38 615.472 1094.56 615.256 1094.82 614.952C1095.08 614.648 1095.34 614.336 1095.61 614.016C1095.88 613.696 1096.13 613.416 1096.36 613.176C1096.6 612.936 1096.75 612.816 1096.81 612.816L1096.84 612.84C1096.96 612.888 1097.14 612.936 1097.36 612.984C1097.6 613.016 1097.78 613.032 1097.89 613.032C1098 613.032 1098.13 613.008 1098.28 612.96C1098.28 613.056 1098.32 613.168 1098.42 613.296C1098.52 613.424 1098.62 613.552 1098.73 613.68C1098.84 613.808 1098.95 613.936 1099.04 614.064C1099.14 614.176 1099.19 614.264 1099.19 614.328C1099.19 614.44 1099.15 614.496 1099.07 614.496H1099C1099 614.64 1099 614.896 1099.02 615.264C1099.05 615.616 1099.07 616.024 1099.07 616.488C1099.07 616.744 1098.99 616.968 1098.83 617.16C1098.67 617.352 1098.48 617.52 1098.28 617.664C1098.07 617.808 1097.85 617.928 1097.63 618.024C1097.42 618.12 1097.26 618.192 1097.15 618.24C1097.05 618.24 1097.01 618.288 1097.03 618.384C1097.04 618.496 1097.01 618.552 1096.93 618.552H1096.81C1096.76 618.552 1096.69 618.528 1096.6 618.48C1096.5 618.448 1096.4 618.4 1096.28 618.336C1096.3 618.288 1096.38 618.168 1096.52 617.976C1096.68 617.768 1096.85 617.552 1097.03 617.328C1097.2 617.088 1097.37 616.872 1097.53 616.68C1097.69 616.472 1097.8 616.344 1097.84 616.296C1097.76 616.344 1097.64 616.464 1097.46 616.656C1097.28 616.832 1097.1 617.032 1096.91 617.256C1096.73 617.464 1096.56 617.664 1096.38 617.856C1096.22 618.032 1096.12 618.144 1096.07 618.192C1095.86 618.08 1095.72 618.024 1095.64 618.024L1095.52 618.12C1095.34 618.12 1095.15 618.08 1094.94 618C1094.75 617.936 1094.56 617.856 1094.39 617.76C1094.23 617.664 1094.08 617.568 1093.96 617.472C1093.84 617.376 1093.79 617.304 1093.79 617.256V617.16Z" fill="#F1E3D2"/>
</svg>
